<?xml version="1.0" encoding="utf-8"?>
<!-- Generator: Adobe Illustrator 18.0.0, SVG Export Plug-In . SVG Version: 6.00 Build 0)  -->
<!DOCTYPE svg PUBLIC "-//W3C//DTD SVG 1.1//EN" "http://www.w3.org/Graphics/SVG/1.1/DTD/svg11.dtd">
<svg version="1.1" id="Layer_1" xmlns="http://www.w3.org/2000/svg" xmlns:xlink="http://www.w3.org/1999/xlink" x="0px" y="0px"
	 viewBox="0 0 273 252" enable-background="new 0 0 273 252" xml:space="preserve">
<g>
	<g>
		<path fill="#374BA0" d="M59.7,197.3c12,3,33.9-5,40,9.2c2.7,6.4,16.5,21.7,23.2,23.4c15.7,3.9,16.7-10.7,30.4-10.5
			c6.9,0.1,13,3.5,19.5,5.4c3.8,1.1,23-1.5,13.9-8.2c2.5,12.1,20.7,6.3,25.9,0.5c11-12.1-9.2-20.6-2.3-33.1
			c7.9-14.4,20.3-0.5,16.5-21.5c-2.4-13.9,19-16.4,23.5-26.8c-14-0.9-21.6-14.3-19.1-28.2c3-16.8-12.8-23.7-10.8-39.3
			c1.5-11.5,10-12.1-1.4-19.7c-8.6-5.8-13.1-5.8-13.2-16.3c-0.5-26.6-28.3-1.5-36.8-1c-8.5,0.5-11.2-20.2-25.1-7.4
			c-6.9,6.4-3.7,10.9-14.1,9.7c0.6-6.9,0.3-14.8-4.6-20.3c-7.5-8.5-21.4-5.8-29.1,0.8c-11.1,9.4-27.1,13-13.9,30.9
			c-5.5,2.3-11.2,3.6-17.1,4c0,3.5-1.3,6.5-3.9,8.9C55,64.9,59.3,72.4,54.3,79c-3,4.1-11.8,8.4-9.9,14.7c4,12.9,2.2,15.9-10.2,23.3
			c-8.1,4.8-10.9,11.7-6.9,20.6c4.7,10.2,17,5.1,20.9,14.7c3.5,8.8-2.7,17-5.8,24.7C39.9,183.3,51.4,195.2,59.7,197.3z"/>
		<path fill="#FFFFFF" d="M61.7,188.5l1.2,0.2c0.2,0,0.3,0,0.5,0l0.8,0.1l0.9,0c1.2,0,2.6,0,4.1,0c2.9-0.1,6.1-0.2,9.6-0.1
			c3.5,0.1,7.1,0.2,11.3,1.1c2.1,0.4,4.2,1.1,6.4,2.1c2.2,1,4.4,2.5,6.3,4.5c1.9,1.9,3.3,4.2,4.3,6.5l0.4,0.9l0.2,0.5l0.1,0.3
			l0.3,0.5l0.5,0.8c1.4,2.3,3.1,4.6,5,6.9c1.9,2.3,3.8,4.4,5.9,6.4c1,1,2,1.9,3,2.6c0.2,0.2,0.5,0.3,0.7,0.5
			c0.2,0.1,0.5,0.4,0.7,0.5c0.2,0.1,0.4,0.2,0.6,0.3c0.1,0.1,0.2,0.1,0.3,0.1l0.1,0l0,0c0.1,0-0.7-0.2-0.4-0.1l0.1,0l0.1,0l0.6,0.1
			l1.2,0.3c1,0.3,1.1,0.2,1.5,0.2c0.4,0.1,0.8,0.1,1.3,0.1c0.5,0.1,0.9-0.1,1.3-0.1c1.7-0.3,3.7-1.5,6.2-3.5c2.5-1.9,6-4.4,10.2-5.5
			c0.5-0.2,1-0.3,1.6-0.4l1.6-0.3c1-0.1,2.1-0.1,3.1-0.1l0.4,0l0.2,0l0.1,0l0.1,0l0.6,0.1c0.2,0,0.4,0,0.6,0.1l0.8,0.1l0.8,0.1
			l0.7,0.1c0.5,0.1,0.9,0.2,1.4,0.3c3.6,0.9,6.8,2.3,9.7,3.5c1.5,0.6,2.9,1.2,4.2,1.8l1.5,0.5c0.4,0.1,1.1,0.1,1.8,0.2
			c2.7,0.1,5.8-0.3,8.2-1c0.6-0.2,1.1-0.4,1.5-0.6c0.1,0,0.2-0.1,0.2-0.1l0.1,0c0,0,0,0,0,0c0,0,0,0,0,0c0,0,0,0,0,0.1
			c0,0-0.1,0.2-0.1,0.3c-0.1,0.2,0,0.5,0,0.6c0,0,0.1,0.1,0,0c0,0,0-0.1-0.1-0.1c-0.1-0.3-0.6-0.7-1-1.1l0,0l4.7-3
			c0.4,2.1,1.5,3.4,3.2,4.1c1.8,0.7,4.3,0.7,6.7,0.2c2.4-0.5,4.9-1.4,7.1-2.6c1.1-0.6,2.1-1.3,3-2c0.2-0.2,0.4-0.4,0.6-0.6l0.1-0.1
			l0,0l0,0c-0.2,0.2,0,0-0.1,0.1l0.1-0.1l0.3-0.4l0.3-0.4l0.2-0.2l0.1-0.2l0.4-0.6c1.1-1.9,1.5-3.7,0.9-5.8c-0.5-2.2-1.9-4.5-3.2-7
			c-1.3-2.5-2.9-5.3-3.5-8.8c-0.3-1.7-0.2-3.6,0.2-5.4c0.2-0.9,0.5-1.7,0.9-2.5l0.6-1.2l0.6-1c0.1-0.2,0.2-0.3,0.3-0.5l0.4-0.5
			c0.3-0.4,0.5-0.7,0.8-1.1c0.3-0.3,0.5-0.7,0.8-1l0.9-0.9c1.2-1.2,2.7-2.2,4.3-2.9c1.6-0.7,3.2-1.1,4.6-1.4
			c1.4-0.3,2.7-0.6,3.2-0.9c0.3-0.2,0.4-0.2,0.5-0.5c0.1-0.2,0.3-0.5,0.4-1c0.2-0.9,0.2-2.2,0.1-3.4c-0.1-1.3-0.3-2.6-0.5-3.9
			l-0.1-0.5l-0.1-0.7l-0.1-0.5c0-0.2,0-0.3-0.1-0.6c0-0.5,0-1,0-1.5l0.1-1.4c0.2-1.8,0.9-3.6,1.8-5.1c0.9-1.5,2-2.8,3.2-3.9
			c2.4-2.2,4.9-3.8,7.3-5.3c2.4-1.5,4.8-2.9,6.9-4.5c2.1-1.6,3.8-3.3,4.6-5.1l0,0l2.6,4.2c-0.7,0.2-1.4,0.4-2.1,0.5
			c-0.4,0.1-0.7,0.2-1.1,0.2l-1.1,0.1c-0.7,0-1.5,0.1-2.2,0c-0.7-0.1-1.5-0.2-2.2-0.3c-0.8-0.1-1.5-0.4-2.2-0.5l-1.1-0.3
			c-0.4-0.1-0.7-0.3-1.1-0.4c-0.7-0.3-1.5-0.6-2.2-1c-0.7-0.4-1.3-0.8-2-1.3c-2.6-1.8-4.9-4.2-6.6-6.9c-1.7-2.7-3.1-5.6-3.8-8.6
			c-0.8-3-1.2-6.2-1-9.2c0-1.5,0.2-3.1,0.5-4.6l0.3-2.9c0-0.2-0.1-0.4-0.1-0.6c0-0.1,0-0.2,0-0.3c0-0.1,0-0.3-0.1-0.5
			c-0.1-0.3-0.1-0.7-0.1-1c0-0.3-0.2-0.7-0.3-1c-0.1-0.7-0.5-1.4-0.7-2.1c-0.2-0.4-0.4-0.8-0.5-1.2l-0.3-0.6l-0.3-0.6l-0.7-1.3
			l-0.8-1.4l-1.7-3.1c-1.2-2.2-2.5-4.7-3.6-7.6c-0.3-0.7-0.5-1.5-0.7-2.3l-0.3-1.1c-0.1-0.4-0.2-0.8-0.3-1.2
			c-0.2-0.8-0.3-1.6-0.5-2.5c-0.1-0.8-0.1-1.7-0.2-2.5L211,71c0-0.4,0-0.8,0.1-1.2c0.1-0.8,0.1-1.7,0.2-2.5l0-0.3l0-0.3l0-0.1
			l0.1-0.4l0.1-0.4l0.1-0.7c0.2-1,0.4-1.7,0.6-2.5c0.5-1.6,1-3.1,1.7-4.5c0.6-1.4,1.3-2.7,1.8-3.5l0.4-0.7c0,0,0,0,0,0.1
			c0,0,0,0.1,0,0.2c0,0.2-0.1,0.5-0.1,0.9c0,0.8,0.2,1.8,0.5,2.3c0.2,0.5,0.4,0.7,0.4,0.7c0,0-0.5-0.6-1.1-1.1
			c-0.3-0.3-0.7-0.5-1.1-0.8l-0.5-0.4l-0.7-0.5l-0.7-0.5l-0.6-0.4l-0.6-0.4l-0.7-0.4l-3.1-2c-1.2-0.8-2.5-1.6-3.9-3
			c-1.4-1.3-2.9-3.1-3.9-5.2c-0.2-0.5-0.4-1-0.6-1.5l-0.3-0.7l-0.2-0.7c-0.1-0.5-0.3-0.9-0.4-1.4l-0.2-1.3c-0.3-1.7-0.4-3.3-0.4-4.7
			l0-1.6c0-0.5,0-1.3-0.1-1.5c0-0.3,0-0.6-0.1-0.9c-0.1-0.3-0.1-0.6-0.2-0.9c0-0.1-0.1-0.2-0.1-0.3c0-0.1,0-0.2-0.1-0.3
			c0-0.1,0-0.3,0-0.2c0-0.1,0.4,0.3,0.6,0.3c0.3,0,0.1,0-0.2-0.1c-0.2,0-0.4,0-0.8,0l-0.5,0l-0.5,0.1c-1.5,0.3-3.4,0.9-5.3,1.6
			c-1.9,0.8-3.9,1.7-6,2.6c-2.1,1-4.2,2-6.5,3c-1.1,0.5-2.4,1-3.8,1.5l-1.1,0.4c-0.4,0.1-0.9,0.2-1.3,0.3c-0.4,0.1-1.1,0.2-1.6,0.2
			l-0.4,0c-0.2,0,0.4,0-0.6,0l-0.1,0l-0.1,0l-0.4,0c-3.1-0.2-5.1-1.4-6.6-2.5c-1.5-1.2-2.5-2.3-3.4-3.4c-1.7-2.1-3-3.9-4.1-5.2
			c-0.5-0.6-1-1.1-1.4-1.3c-0.3-0.2-0.5-0.3-0.8-0.4c-0.3-0.1-0.8,0-1.4,0.2c-0.3,0.1-0.7,0.2-1.1,0.5c-0.4,0.2-0.8,0.4-1.1,0.7
			c-0.4,0.2-0.8,0.5-1.2,0.8l-0.1,0.1l-0.1,0.1l0,0c0,0-0.1,0.1,0.1-0.1l-0.3,0.3l-0.7,0.6c-0.1,0.1-0.2,0.2-0.3,0.3l-0.2,0.2
			l-0.4,0.4c-0.3,0.3-0.6,0.7-0.9,1c-0.6,0.7-1.2,1.6-1.9,2.6c-0.2,0.3-0.4,0.5-0.6,0.9c-0.2,0.3-0.5,0.6-0.8,0.9l-0.5,0.5
			c-0.2,0.2-0.4,0.3-0.6,0.5c-0.2,0.2-0.4,0.3-0.6,0.5l-0.7,0.4c-1.9,1-3.6,1-5,1c-0.7,0-1.4-0.1-2.1-0.2l-1.9-0.3l0,0l-2.6-3.2
			c0.3-3.7,0.2-7.4-0.6-10.8c-0.4-1.7-1-3.2-1.8-4.6c-0.4-0.7-0.8-1.3-1.3-1.9l-0.4-0.4l0,0c0,0,0.3,0.3,0.1,0.1l0,0l-0.1-0.1
			l-0.1-0.1l-0.3-0.3c-0.4-0.3-0.7-0.7-1.1-1c-1-0.7-2.4-1.5-3.9-2c-1.5-0.4-3.1-0.6-4.7-0.7c-1.6,0.1-3.3,0.3-4.9,0.7
			c-1.6,0.5-3.2,1-4.7,1.8c-1.5,0.8-2.9,1.7-4.1,2.7c-0.7,0.6-1.5,1.3-2.4,2c-0.8,0.7-1.7,1.3-2.5,1.9l-4.8,3.4
			c-1.5,1.1-3,2.2-4.3,3.3c-1.2,1.1-2.2,2.3-2.7,3.3c-0.5,1.1-0.7,2-0.5,3.2c0.2,1.2,0.7,2.6,1.4,4c0.8,1.4,1.7,2.9,2.8,4.3l0,0
			l-2,7c-6.1,1.9-12.4,2.8-18.6,2.7l0,0l2.8-3c0.1,2-0.3,4.2-1.1,6.2c-0.8,2-2.1,3.8-3.6,5.2l0.3-0.3c-1.8,2.4-2.4,4.9-2.6,8.4
			c-0.1,1.7-0.1,3.7-0.5,5.8c-0.3,2.2-1.1,4.5-2.4,6.6l-0.5,0.8l-0.1,0.1l-0.2,0.2l-0.1,0.1l-0.2,0.3L57,82.4
			c-0.1,0.1-0.2,0.2-0.3,0.3L56,83.4c-0.8,0.8-1.5,1.5-2.2,2.1c-1.4,1.3-2.6,2.4-3.5,3.6c-0.5,0.6-0.8,1.1-1.1,1.5
			c-0.2,0.4-0.3,0.8-0.3,1c0,0.1,0,0.1,0,0.2c0,0,0,0.1,0,0.1c0,0.1,0.1,0.2,0.1,0.3l0,0l0,0c0,0,0-0.1,0,0.1l0.1,0.2l0.1,0.3
			l0.2,0.7l0.4,1.3c0.6,2,1.1,3.9,1.4,6.2c0.1,1.2,0.2,2.4,0.1,3.7c0,0.6-0.2,1.4-0.3,2c-0.1,0.7-0.4,1.4-0.6,2.1
			c-0.5,1.3-1.2,2.6-2,3.7c-0.4,0.6-0.8,1-1.2,1.5l-0.6,0.7l-0.6,0.6c-1.7,1.6-3.3,2.8-5,3.9c-0.8,0.6-1.6,1.1-2.4,1.6l-1.2,0.8
			l-1,0.7c-0.2,0.1-0.4,0.3-0.5,0.4l-0.3,0.3c-0.2,0.2-0.5,0.4-0.7,0.6c-0.5,0.4-0.9,0.9-1.3,1.4c-1.5,1.9-1.9,3.6-1.7,5.7
			c0.2,1.1,0.5,2.2,1.1,3.4l0.2,0.5l0.1,0.2l0,0c0.1,0.1-0.4-0.8-0.2-0.4l0,0.1l0.1,0.1l0.7,1.2l0.2,0.3l0.1,0c0,0,0.1,0,0.1,0
			s0,0,0.1,0.1c0,0,0.1,0.1,0.2,0.2c0.9,1,3.4,1.6,7.4,2.6c2,0.5,4.5,1.3,7.1,3.1c2.6,1.7,4.8,4.5,6,7.2l0.1,0.1l0,0.1
			c0.1,0.2-0.1-0.4,0.2,0.5l0.1,0.2l0.1,0.3l0.2,0.6l0.1,0.3l0.1,0.2l0.1,0.3l0.3,1.2l0.3,1.2c0.1,0.4,0.1,0.7,0.2,1.1
			c0.1,0.7,0.2,1.4,0.2,2.1c0.1,2.7-0.3,5.3-0.9,7.6c-1.2,4.6-3.1,8.3-4.5,11.5c-0.4,0.8-0.7,1.6-1,2.3l-0.4,1.1L50,180l0,0
			c0.4-1,0.1-0.3,0.2-0.5l0,0.1L50,180l0,0.2c0-0.1,0.1-0.1,0.1-0.2c0.1-0.2,0.1-0.3,0.1-0.5c0-0.2,0-0.2,0.1-0.3c0,0,0-0.1,0-0.1
			c0-0.1,0-0.1,0-0.2c0-0.1,0-0.1,0.1,0c0.1,0.1,0.2,0.5,0.4,0.9c0.5,0.8,1.2,1.8,2.1,2.8c0.9,1,1.9,1.9,3,2.8
			c1.1,0.9,2.2,1.6,3.3,2.2c1.1,0.6,2.2,1,2.7,1L61.7,188.5z M57.5,206c-3-0.8-5.3-2-7.3-3.3c-2.1-1.3-3.9-2.7-5.6-4.2
			c-1.7-1.5-3.3-3.2-4.7-5c-1.5-1.8-2.8-3.8-4-6.3c-0.6-1.3-1.1-2.6-1.5-4.3c-0.2-0.8-0.3-1.7-0.4-2.7c0-0.5,0-1,0-1.5l0.1-0.8
			c0-0.3,0-0.5,0.1-1c0.1-0.4,0.2-0.8,0.3-1.2l0.2-0.6l0.1-0.2l0.1-0.3l0-0.1l0.2-0.6l0,0l0.1-0.2l0.7-1.5c0.5-0.9,0.9-1.8,1.4-2.7
			c1.8-3.4,3.4-6.3,4.1-8.7c0.4-1.2,0.6-2.3,0.7-3.2c0-0.2,0-0.5,0-0.7c0-0.1,0-0.3,0-0.3c0-0.1,0-0.1,0-0.2c0-0.1,0-0.1,0-0.2
			c0,0,0,0,0-0.1l0-0.2l-0.1-0.3l-0.2-0.7l-0.1-0.3l0-0.2c0.3,0.8,0.1,0.2,0.1,0.4l0,0l0,0c-0.2-0.7-0.4-0.9-0.8-1.3
			c-0.4-0.4-1.4-0.9-2.9-1.4c-1.5-0.5-3.5-1.1-5.7-2c-0.6-0.3-1.1-0.4-1.7-0.8c-0.6-0.3-1.2-0.6-1.7-1c-0.6-0.4-1.2-0.8-1.7-1.2
			c-0.6-0.4-1.1-1-1.6-1.5c-0.3-0.3-0.5-0.5-0.8-0.8c-0.3-0.3-0.5-0.7-0.8-1c-0.3-0.3-0.5-0.7-0.7-1l-0.4-0.5l-0.2-0.3l-0.6-1.2
			l-0.4-0.8l-0.2-0.4l-0.3-0.8c-0.8-2.2-1.4-4.6-1.6-7.2c-0.2-2.6,0.2-5.4,1.2-8c1-2.6,2.5-4.8,4.2-6.6c0.9-0.9,1.7-1.7,2.7-2.4
			c0.4-0.4,1-0.7,1.5-1.1l0.8-0.5c0.2-0.2,0.4-0.2,0.6-0.4l1.3-0.8l1.1-0.7c0.8-0.4,1.5-0.9,2.2-1.3c2.9-1.7,5.3-3.7,5.9-5
			c0.3-0.7,0.5-1.6,0.4-3c-0.1-1.4-0.4-3-0.7-4.5l-0.7-2.7c-0.1-0.8-0.4-1.6-0.3-2.4c0-0.4,0-0.8,0-1.2c0-0.4,0.1-0.8,0.2-1.2
			c0.1-0.8,0.4-1.5,0.7-2.2c0.3-0.7,0.6-1.3,1-1.9c0.7-1.1,1.5-2,2.3-2.8c1.5-1.6,3.1-2.8,4.5-4c0.7-0.6,1.3-1.1,1.9-1.6l0.3-0.3
			c0.1-0.1,0.1-0.1,0.2-0.2l0.2-0.3l0.2-0.3l0.1-0.1l0,0c0.1-0.1-0.1,0.2-0.1,0.1l0,0l0.3-0.4c0.7-1,1.2-2.1,1.6-3.6
			c0.3-1.4,0.5-3.2,0.7-5.1c0.2-1.9,0.6-4.1,1.4-6.2c0.8-2.1,2-4.1,3.5-5.8l0.3-0.3c1-0.8,1.8-1.8,2.3-2.9c0.5-1.1,0.8-2.3,0.9-3.6
			l2.8-3l0,0c5.5-0.9,10.7-2.7,15.5-5.3l-2,7l0,0c-1.2-1.8-2.4-3.6-3.4-5.7c-1-2.1-1.9-4.4-2.1-7.2c-0.3-2.7,0.3-5.8,1.7-8.2
			c1.4-2.4,3.1-4.2,4.8-5.6c1.7-1.5,3.5-2.6,5.1-3.7l4.9-3.2c0.8-0.5,1.5-1.1,2.3-1.6c0.7-0.5,1.4-1.1,2.2-1.7
			C95.7,9.1,97.7,8,99.7,7c2-1,4.2-1.6,6.3-2.2c2.2-0.5,4.5-0.7,6.7-0.7c2.3,0.1,4.6,0.5,6.9,1.2c2.3,0.9,4.3,2,6.4,3.8
			c0.4,0.4,0.7,0.7,1.1,1.1l0.3,0.3l0.1,0.1l0.1,0.1l0.2,0.2l0,0l0.6,0.7c0.7,0.9,1.4,1.9,1.9,3c1.1,2.1,1.8,4.3,2.2,6.4
			c0.8,4.4,0.7,8.6,0.3,12.7l-2.6-3.2l0,0l1.6,0c0.5,0,1-0.1,1.4-0.1c0.9-0.1,1.5-0.4,1.6-0.6c0,0,0,0,0.1-0.1c0,0,0-0.1,0.1-0.1
			l0.1-0.1l0.1-0.2c0.1-0.1,0.1-0.3,0.2-0.4c0.1-0.1,0.2-0.4,0.3-0.6c0.5-0.9,1-2.1,1.7-3.3c0.4-0.6,0.7-1.2,1.2-1.7l0.7-0.9
			l0.4-0.4l0.3-0.3l0.6-0.7l0.3-0.3l0.5-0.5c0.5-0.5,0.9-1,1.5-1.4c0.5-0.5,1.1-0.9,1.7-1.4c0.6-0.4,1.3-0.9,2-1.3
			c1.5-0.8,3.2-1.4,5.2-1.6c2-0.2,4.2,0.3,5.9,1.1c1.7,0.8,3.1,1.8,4.2,2.8c2.2,2,3.8,3.9,5.2,5.2c0.7,0.7,1.3,1.2,1.7,1.3
			c0.2,0.1,0.3,0.1,0.3,0.1c0,0,0,0-0.1-0.1c-0.1,0-0.2-0.1-0.4-0.1c-0.1,0-0.1,0-0.2,0c-0.1,0,0,0,0,0l0.1,0l0.4,0l0.1,0l0.1,0
			c-0.9,0-0.3,0-0.5,0l0,0c0,0-0.1,0,0.1-0.1l0.3-0.1l0.5-0.2c0.8-0.4,1.6-0.8,2.5-1.3c3.7-2.1,7.8-4.7,12.3-7
			c2.3-1.1,4.8-2.3,7.8-3.1l1.1-0.3c0.4-0.1,0.8-0.2,1.2-0.2c0.8-0.2,1.8-0.2,2.7-0.3c2,0,4.2,0.1,6.6,1.1c0.6,0.2,1.1,0.5,1.7,0.9
			c0.5,0.3,1.1,0.7,1.6,1.1c0.5,0.4,1,0.8,1.4,1.3c0.4,0.4,0.8,0.9,1.2,1.4c0.8,1,1.2,1.9,1.8,2.8c0.3,0.5,0.4,0.9,0.6,1.4l0.5,1.3
			c0.3,0.9,0.5,1.7,0.7,2.5c0.2,0.8,0.3,1.7,0.4,2.6c0.1,1,0.1,1.4,0.2,2l0.1,1.9c0.1,0.9,0.2,1.7,0.3,2.2l0.1,0.4
			c0,0.1,0.1,0.2,0.1,0.2l0,0.1c0,0,0,0,0.1,0.1c0,0,0,0.1,0.1,0.1c0.1,0,0.1,0,0.4,0.3c0.2,0.2,0.9,0.6,1.7,1.1l2.9,1.6
			c1,0.5,2.4,1.4,3.3,1.9l0.7,0.5l0.9,0.6c0.6,0.4,1.2,0.8,1.8,1.2c1.2,0.9,2.5,1.9,4,3.6c0.8,0.9,1.6,2,2.3,3.6
			c0.7,1.6,1.2,3.8,1.1,5.7c-0.1,1.9-0.5,3.4-0.9,4.5c-0.4,1.1-0.8,1.8-1.1,2.5c-0.6,1.3-1,2-1.3,2.7c-0.3,0.7-0.5,1.4-0.7,2
			c-0.1,0.3-0.2,0.7-0.2,0.9l0,0.2l-0.1,0.4l-0.1,0.4l0,0.1l0,0.1c0,0.1,0.1-0.4,0-0.2l0,0.1c0,0.3,0,0.7,0,1l0,0.5l0.1,0.5
			c0,0.3,0.1,0.6,0.1,0.9c0.1,0.3,0.2,0.6,0.2,1l0.1,0.5l0.2,0.5c0.1,0.3,0.2,0.7,0.4,1c0.6,1.5,1.4,3.1,2.5,4.9
			c1.1,1.9,2.3,3.9,3.6,6.4l0.5,0.9l0.5,1c0.3,0.7,0.6,1.3,0.9,2c0.5,1.5,1.1,2.8,1.5,4.5c0.2,0.8,0.4,1.6,0.6,2.4l0.4,2.5
			c0,0.4,0.1,0.8,0.1,1.3l0,1.4c0,1,0,1.9,0,2.9c-0.1,0.7-0.1,1.2-0.2,1.8l-0.1,0.9l0,0.4l-0.1,0.8l0,0.1c-0.1,0.8-0.3,1.6-0.3,2.3
			c-0.2,1.6-0.1,3.1,0,4.6c0.3,3,1,5.9,2.5,8.6c0.7,1.4,1.7,2.7,3,4c1.3,1.3,2.9,2.4,4.8,3.7l2.6,4.2c0,0,0,0,0,0
			c-0.7,1.7-1.8,3.1-2.9,4.3c-1.1,1.2-2.3,2.2-3.6,3.2c-2.4,1.9-4.9,3.3-7.3,4.8c-2.4,1.5-4.6,3-6.4,4.6c-1.8,1.7-3,3.5-3.2,5.5
			l-0.1,0.8l0,0.7c0,0.1,0,0.3,0,0.4l0.1,0.5l0,0.3l0,0.1c0-0.1,0,0.2,0-0.1l0,0l0,0.1l0.1,0.5c0.2,1.5,0.4,2.9,0.6,4.5
			c0.1,1.6,0.1,3.2-0.2,5c-0.2,0.9-0.5,2-1.1,2.9c-0.6,1-1.6,1.9-2.5,2.4c-1,0.6-1.9,0.9-2.7,1.1c-0.8,0.2-1.5,0.4-2.2,0.5
			c-1.3,0.3-2.5,0.6-3.5,1.1c-1,0.4-1.9,1-2.7,1.8c-0.4,0.4-0.8,0.8-1.1,1.3c-0.2,0.2-0.3,0.4-0.5,0.7l-0.2,0.3
			c-0.1,0.1-0.2,0.3-0.3,0.4l-0.5,0.8l-0.4,0.7c-0.2,0.5-0.4,1-0.5,1.5c-0.2,1-0.3,2-0.1,3.1c0.3,2.1,1.5,4.4,2.8,6.9
			c1.3,2.5,2.9,5.1,3.8,8.4c0.4,1.7,0.6,3.6,0.3,5.4c-0.3,1.9-1,3.6-1.9,5.1l-0.8,1.1l-0.2,0.3l-0.2,0.2l-0.3,0.4l-0.3,0.4l-0.1,0.1
			l-0.1,0.2l-0.1,0.1l-0.2,0.2c-0.3,0.3-0.6,0.6-1,0.9c-1.3,1.1-2.6,2-4,2.7c-2.8,1.5-5.7,2.6-8.8,3.2c-1.6,0.3-3.2,0.5-4.9,0.4
			c-1.7,0-3.4-0.3-5.2-1c-1.7-0.7-3.4-1.9-4.6-3.4c-1.2-1.6-1.9-3.4-2.3-5.1l4.7-3l0,0c0.8,0.6,1.6,1.1,2.4,2.2
			c0.2,0.2,0.4,0.6,0.6,0.9c0.2,0.3,0.4,0.7,0.5,1.1c0.2,0.4,0.2,0.9,0.3,1.4c0,0.5,0,1.1-0.1,1.5c-0.1,0.5-0.3,1-0.5,1.3
			c-0.1,0.2-0.2,0.4-0.3,0.6c-0.1,0.2-0.2,0.3-0.4,0.5c-0.1,0.1-0.3,0.3-0.4,0.4l-0.4,0.3c-0.3,0.2-0.5,0.4-0.7,0.6
			c-1,0.7-1.9,1.2-2.8,1.5c-1.8,0.8-3.5,1.2-5.2,1.6c-1.7,0.4-3.4,0.7-5.3,0.8c-0.9,0.1-1.8,0.1-3,0l-0.6-0.1l-0.5-0.1l-0.1,0
			l-0.1,0l0,0l-0.2-0.1l-0.3-0.1l-1.3-0.3c-1.7-0.4-3.3-0.9-4.8-1.4c-3.1-1-5.9-1.8-8.5-2.2c-0.3-0.1-0.7-0.1-1-0.1l-0.5,0l-0.4,0
			l-0.4,0c-0.1,0-0.4,0-0.6,0l-0.6,0l-0.1,0l-0.1,0c0.3,0,0.1,0,0.1,0l0,0l-0.2,0c-0.6,0.1-1.1,0.1-1.7,0.2l-0.8,0.2
			c-0.3,0.1-0.5,0.1-0.7,0.2c-1.9,0.8-3.7,2.1-6.1,4.3c-0.6,0.5-1.2,1.1-1.9,1.7c-0.4,0.3-0.7,0.6-1.1,0.9l-1.2,0.9l-0.6,0.4
			l-0.7,0.4l-1.4,0.8c-0.5,0.2-1,0.5-1.5,0.7c-0.5,0.2-1,0.5-1.6,0.6c-1.1,0.3-2.2,0.7-3.4,0.8c-1.1,0.1-2.2,0.3-3.5,0.2
			c-1.2,0-2.6-0.1-3.2-0.2l-1.2-0.2l-0.6-0.1l-0.1,0l-0.1,0l-0.4-0.1l-0.1,0l-0.5-0.1c-0.7-0.2-1.4-0.4-2-0.7l-1.6-0.7
			c-0.6-0.3-0.9-0.5-1.4-0.8c-0.4-0.3-0.9-0.5-1.3-0.8c-1.6-1.1-3.1-2.2-4.5-3.3c-2.8-2.3-5.3-4.6-7.7-7.1c-2.4-2.5-4.7-5.1-6.9-8.1
			l-0.8-1.2c-0.3-0.5-0.6-1-0.9-1.5l-0.5-0.8l-0.3-0.5l-0.3-0.5l-0.1-0.1l0-0.1c0,0.1-0.3-0.7-0.2-0.4l0,0l-0.1-0.1
			c-0.4-0.7-0.7-1-1.1-1.4c-0.4-0.3-0.9-0.6-1.6-0.8c-0.7-0.2-1.6-0.4-2.7-0.6c-2.2-0.3-4.9-0.2-7.8,0c-2.9,0.2-6.1,0.5-9.6,0.5
			c-1.7,0-3.6,0-5.5-0.2l-1.5-0.1l-1.6-0.2c-0.6-0.1-1.3-0.2-1.9-0.4l-1.2-0.3L57.5,206z"/>
	</g>
	<g>

		<path fill="#374BA0" d="M59.7,197.3c12,3,33.9-5,40,9.2c2.7,6.4,16.5,21.7,23.2,23.4c15.7,3.9,16.7-10.7,30.4-10.5
			c6.9,0.1,13,3.5,19.5,5.4c3.8,1.1,23-1.5,13.9-8.2c2.5,12.1,20.7,6.3,25.9,0.5c11-12.1-9.2-20.6-2.3-33.1
			c7.9-14.4,20.3-0.5,16.5-21.5c-2.4-13.9,19-16.4,23.5-26.8c-14-0.9-21.6-14.3-19.1-28.2c3-16.8-12.8-23.7-10.8-39.3
			c1.5-11.5,10-12.1-1.4-19.7c-8.6-5.8-13.1-5.8-13.2-16.3c-0.5-26.6-28.3-1.5-36.8-1c-8.5,0.5-11.2-20.2-25.1-7.4
			c-6.9,6.4-3.7,10.9-14.1,9.7c0.6-6.9,0.3-14.8-4.6-20.3c-7.5-8.5-21.4-5.8-29.1,0.8c-11.1,9.4-27.1,13-13.9,30.9
			c-5.5,2.3-11.2,3.6-17.1,4c0,3.5-1.3,6.5-3.9,8.9C55,64.9,59.3,72.4,54.3,79c-3,4.1-11.8,8.4-9.9,14.7c4,12.9,2.2,15.9-10.2,23.3
			c-8.1,4.8-10.9,11.7-6.9,20.6c4.7,10.2,17,5.1,20.9,14.7c3.5,8.8-2.7,17-5.8,24.7C39.9,183.3,51.4,195.2,59.7,197.3z"/>
		<path fill="#262262" d="M60.7,192.9l1.2,0.2l0.8,0.1c0.7,0.1,1.3,0.1,2,0.2c1.4,0.1,2.9,0,4.4,0c3-0.1,6.2-0.2,9.6-0.2
			c3.3,0,6.8,0.1,10.4,0.8c1.8,0.4,3.7,0.9,5.5,1.7c1.8,0.8,3.6,2,5.1,3.5c1.5,1.5,2.7,3.3,3.5,5.2l0.5,1l0.3,0.5l0.2,0.4l0.4,0.8
			l0.6,0.9c1.6,2.5,3.5,4.9,5.4,7.2c2,2.3,4.1,4.5,6.3,6.6c1.1,1,2.2,2,3.4,2.8c0.6,0.4,1.1,0.8,1.7,1.1l0.8,0.4
			c0.3,0.1,0.5,0.2,0.7,0.3l0.2,0.1l0,0c0,0-0.3-0.1-0.2,0l0.1,0l0.1,0l0.6,0.1l1.2,0.2c0.9,0.2,1.3,0.2,2,0.2c0.6,0.1,1.2,0,1.8,0
			c0.6,0,1.2-0.2,1.8-0.3c2.4-0.6,4.7-2.3,7.2-4.2c2.5-2,5.5-4.2,9.2-5.2c0.4-0.2,0.9-0.2,1.4-0.3l1.4-0.2c0.9-0.1,1.8-0.1,2.7-0.1
			l0.3,0l0.2,0l0.1,0l0.1,0l0.6,0c0.4,0,0.8,0.1,1.3,0.1c0.5,0,0.9,0.1,1.3,0.2c0.4,0.1,0.9,0.2,1.3,0.3c3.4,0.7,6.5,2,9.4,3.2
			c1.5,0.6,2.9,1.2,4.4,1.7l1.1,0.4l0.3,0.1c0,0,0.1,0-0.1,0l0,0l0.1,0l0.1,0c0.1,0,0.2,0,0.2,0l0.1,0c0.6,0.1,1.4,0.1,2.1,0.1
			c3,0,6.1-0.5,8.8-1.4c0.7-0.2,1.3-0.5,1.8-0.8c0.5-0.3,0.8-0.7,0.9-0.8c0-0.1,0-0.1,0-0.3c0-0.1-0.1-0.4-0.3-0.6
			c-0.3-0.5-0.8-0.9-1.4-1.4l0,0l2.4-1.5c0.3,1.2,0.7,2.3,1.4,3.2c0.7,0.9,1.6,1.6,2.7,2c2.2,0.9,4.9,0.8,7.5,0.3
			c2.6-0.5,5.2-1.4,7.5-2.7c1.2-0.6,2.3-1.4,3.2-2.2c0.2-0.2,0.5-0.4,0.7-0.6l0.2-0.2c0,0,0.1-0.1,0,0l0.1-0.1l0.3-0.4
			c0.5-0.6,0.8-1,1.1-1.5c1.3-2.1,1.7-4.5,1.1-7c-0.6-2.5-2-4.9-3.4-7.4c-1.3-2.5-2.8-5.2-3.3-8.3c-0.2-1.6-0.2-3.2,0.2-4.8
			c0.4-1.5,1.1-3.1,1.8-4.3c0.2-0.3,0.4-0.6,0.6-0.9c0.2-0.3,0.4-0.7,0.7-1c0.5-0.6,1-1.2,1.6-1.7c1.1-1.1,2.5-2,3.9-2.6
			c1.4-0.6,2.9-1,4.3-1.4c1.4-0.3,2.7-0.6,3.6-1.1c1.7-0.8,1.9-3.6,1.7-6.2c-0.1-1.3-0.3-2.7-0.5-4.1l-0.1-0.5l-0.1-0.6
			c0-0.4-0.1-0.7-0.1-1.1c0-0.4,0-0.8,0-1.3l0.1-1.2c0.2-1.6,0.8-3.2,1.6-4.5c0.8-1.4,1.9-2.5,3-3.6c2.2-2.1,4.7-3.7,7.1-5.2
			c2.4-1.5,4.8-3,7-4.6c2.1-1.6,4.1-3.5,5-5.7l0,0l1.3,2.1c-0.6,0.1-1.3,0.1-1.9,0.1c-0.3,0-0.6,0-1,0l-1-0.1
			c-0.6-0.1-1.3-0.1-2-0.2l-1.9-0.4c-2.5-0.8-5.1-1.9-7.2-3.7c-2.1-1.7-4-3.8-5.4-6.2c-1.4-2.4-2.5-4.9-3.1-7.6
			c-0.6-2.7-0.9-5.4-0.7-8.1c0-1.4,0.2-2.7,0.4-4l0.2-1.5c0.1-0.6,0.2-1.2,0.2-1.7c0-0.4,0-0.8,0-1.2l0-0.6c0-0.2-0.1-0.4-0.1-0.7
			l-0.2-1.4c-0.1-0.5-0.2-0.9-0.3-1.4c-0.2-0.9-0.6-1.8-0.9-2.7c-0.2-0.5-0.4-0.9-0.6-1.4c-0.2-0.5-0.4-0.9-0.7-1.4
			c-0.9-1.9-2.1-3.8-3.3-5.9c-1.2-2.1-2.4-4.4-3.3-6.9c-0.2-0.6-0.4-1.3-0.6-2l-0.3-1c-0.1-0.3-0.1-0.7-0.2-1l-0.4-2.1l-0.2-2.1
			l-0.1-1.1l0.1-1.1l0.1-2.1c0.1-0.9,0.1-1.1,0.3-2c0.1-0.8,0.3-1.4,0.5-2.1c0.4-1.3,0.9-2.7,1.4-3.9c0.6-1.2,1.2-2.4,1.7-3.3
			c0.5-0.9,0.7-1.6,0.7-1.4c0,0.1,0.1,0.3,0.1,0.3c0,0-0.1-0.2-0.3-0.4c-0.4-0.5-1.1-1.1-1.9-1.7c-0.4-0.3-0.8-0.6-1.2-0.9l-0.6-0.4
			l-0.7-0.5c-1-0.7-1.8-1.2-2.8-1.8l-3-1.9c-1.1-0.7-2.2-1.4-3.4-2.5c-1.2-1.1-2.3-2.4-3-3.9c-0.3-0.7-0.7-1.5-0.9-2.3l-0.3-1.1
			l-0.2-1.1c-0.3-1.4-0.3-2.8-0.4-4.1l-0.1-1.7c0-0.6,0-1.2-0.1-1.6c-0.1-0.4-0.1-0.9-0.2-1.3c-0.1-0.4-0.2-0.9-0.3-1.3
			c-0.1-0.4-0.2-0.8-0.4-1.1c-0.2-0.3-0.3-0.7-0.5-0.8c-0.3-0.5-0.6-0.7-1.1-1c-0.4-0.2-1.1-0.3-1.8-0.4c-0.4,0-0.8,0-1.2,0.1
			l-0.7,0.1l-0.7,0.1c-1.9,0.4-3.9,1.1-5.9,2c-4.1,1.7-8.1,3.9-12.4,6c-1.1,0.5-2.3,1-3.5,1.5c-0.6,0.2-1.3,0.4-2.1,0.6
			c-0.3,0.1-0.8,0.1-1.2,0.2l-0.3,0c-0.1,0,0.2,0-0.3,0l-0.1,0l-0.1,0l-0.4,0c-2.1-0.1-3.7-1-4.9-1.9c-1.2-0.9-2.2-1.9-3-2.9
			c-1.6-1.9-3-3.8-4.4-5.2c-0.7-0.7-1.4-1.3-2.1-1.7c-0.7-0.4-1.3-0.6-2.1-0.6c-0.7,0-1.5,0.2-2.4,0.5c-0.8,0.4-1.7,0.9-2.6,1.5
			c-0.4,0.3-0.8,0.6-1.3,1l-0.2,0.1l-0.1,0.1l0,0c0,0-0.1,0.1,0,0l-0.3,0.3l-0.6,0.6c-0.2,0.2-0.4,0.4-0.6,0.6l-0.5,0.5
			c-0.3,0.4-0.7,0.8-1,1.2c-0.6,0.8-1.2,1.8-1.9,2.8c-0.2,0.3-0.3,0.5-0.6,0.8c-0.2,0.3-0.4,0.5-0.7,0.8c-0.2,0.3-0.5,0.5-0.8,0.8
			c-0.2,0.1-0.3,0.3-0.5,0.4l-0.5,0.3c-1.4,0.8-2.9,0.9-4.2,0.9c-0.6,0-1.3-0.1-1.9-0.1l-1.8-0.2l0,0l-1.3-1.6
			c0.3-3.8,0.3-7.7-0.5-11.3c-0.4-1.8-1-3.5-1.9-5.1c-0.4-0.8-0.9-1.5-1.5-2.2l-0.4-0.5l-0.4-0.4c-0.4-0.3-0.7-0.7-1.1-1
			c-1.2-1-2.8-1.9-4.5-2.4c-1.7-0.5-3.5-0.8-5.3-0.8c-1.8,0-3.6,0.2-5.4,0.7c-1.8,0.5-3.5,1.1-5.1,1.9c-1.6,0.8-3.2,1.8-4.6,2.9
			c-0.8,0.6-1.5,1.3-2.3,1.9c-0.8,0.6-1.6,1.2-2.4,1.8L88,22.2c-1.6,1.1-3.1,2.2-4.5,3.4c-1.4,1.2-2.5,2.5-3.3,3.9
			c-0.7,1.4-1,2.9-0.8,4.4c0.2,1.6,0.8,3.2,1.6,4.8c0.8,1.6,1.8,3.1,3,4.6l0,0l-1,3.5c-5.7,2.1-11.8,3.2-17.8,3.4l0,0l1.4-1.5
			c0,1.8-0.3,3.8-1,5.5c-0.7,1.8-1.9,3.3-3.3,4.6l0.1-0.2c-1,1.3-1.8,2.7-2.3,4.3c-0.5,1.5-0.7,3.2-0.9,5c-0.1,1.8-0.2,3.7-0.5,5.7
			c-0.3,2-1,4-2.2,5.8L56,80.1L56,80.2l-0.1,0.1l-0.1,0.1l-0.2,0.3c-0.2,0.3-0.7,0.8-1,1.2c-0.7,0.7-1.4,1.4-2.1,2
			c-1.4,1.2-2.7,2.4-3.8,3.7c-1.1,1.2-1.9,2.5-2.1,3.7c0,0.1-0.1,0.3-0.1,0.4c0,0.1,0,0.3,0,0.4c0,0.3,0.1,0.6,0.2,0.8
			c0.2,0.8,0.5,1.7,0.8,2.6c0.5,1.9,1,3.7,1.3,5.8c0.2,2,0.2,4.4-0.7,6.6c-0.8,2.2-2.4,4-3.9,5.4c-1.5,1.4-3.1,2.5-4.7,3.6
			c-0.8,0.5-1.6,1.1-2.4,1.5l-1.2,0.8l-1.1,0.7c-0.2,0.1-0.4,0.3-0.6,0.4l-0.4,0.4c-0.3,0.2-0.6,0.5-0.9,0.7
			c-0.6,0.5-1.1,1.1-1.7,1.6c-2,2.3-2.9,5-2.6,7.9c0.2,1.4,0.6,2.9,1.2,4.4l0.2,0.5l0.1,0.3l0,0c0,0.1-0.2-0.4-0.1-0.2l0,0.1
			l0.1,0.1l0.7,1.2l0.2,0.3l0.1,0.1c0.1,0.1,0.2,0.2,0.3,0.3c0.1,0.1,0.2,0.2,0.2,0.3c0.1,0.1,0.2,0.2,0.4,0.3
			c1.8,1.8,4.9,2.5,8.6,3.6c1.9,0.5,4,1.3,6,2.7c2,1.4,3.7,3.5,4.7,5.7l0.1,0.1l0,0.1c0,0.1-0.1-0.2,0.1,0.2l0.1,0.2l0.1,0.3
			l0.2,0.6l0.1,0.3c0,0.1,0.1,0.2,0.1,0.4l0.2,0.9c0.1,0.6,0.3,1.3,0.3,1.8c0,0.6,0.2,1.1,0.1,1.7c0.1,2.3-0.3,4.5-0.8,6.5
			c-1.1,4.1-2.9,7.6-4.4,10.8c-0.4,0.8-0.7,1.6-1.1,2.4l-0.5,1.2l-0.1,0.1l0,0c0.2-0.5,0-0.1,0.1-0.2l0,0.1l-0.1,0.3l-0.1,0.2
			c0,0,0,0,0,0c0,0,0,0,0-0.1c0,0.1,0,0.6,0.2,1.1c0.1,0.5,0.4,1.1,0.7,1.7c1.3,2.5,3.6,5,6,7c1.2,1,2.6,1.9,3.9,2.7
			c1.3,0.8,2.7,1.3,3.9,1.6L60.7,192.9z M58.6,201.6c-2.4-0.7-4.4-1.7-6.2-2.8c-1.8-1.1-3.5-2.4-5-3.7c-3.1-2.8-5.8-5.8-7.8-9.9
			c-0.5-1-0.9-2.2-1.2-3.4c-0.3-1.3-0.5-2.7-0.2-4.4c0-0.2,0.1-0.5,0.2-0.7l0.1-0.4l0.1-0.2l0.1-0.3l0-0.1l0.1-0.3l0,0l0.1-0.2
			l0.6-1.4c0.4-0.9,0.8-1.8,1.3-2.6c1.7-3.3,3.3-6.4,4.2-9.4c0.4-1.5,0.7-2.9,0.7-4.3c0-0.4,0-0.7-0.1-1c0-0.4-0.1-0.6-0.1-0.9
			l-0.1-0.4c0-0.1,0-0.2-0.1-0.3l-0.1-0.3l-0.2-0.7l-0.1-0.3l-0.1-0.2c0.1,0.4,0,0.1,0.1,0.2l0,0l0-0.1c-0.5-1.2-1.1-2-2.1-2.8
			c-1-0.7-2.3-1.3-4-1.8c-1.6-0.5-3.5-1-5.5-1.8c-0.5-0.2-1-0.4-1.5-0.7l-1.5-0.8l-1.4-1c-0.5-0.3-0.9-0.8-1.3-1.2
			c-0.2-0.2-0.4-0.4-0.6-0.6l-0.6-0.8l-0.6-0.8l-0.3-0.4l-0.2-0.3l-0.6-1.2l-0.1-0.2l0-0.1l-0.1-0.3l0,0l-0.1-0.4l-0.3-0.7
			c-0.7-1.9-1.3-4-1.5-6.2c-0.2-2.2,0.1-4.5,0.9-6.7c0.8-2.1,2-4.1,3.5-5.6c0.7-0.8,1.5-1.5,2.3-2.2c0.4-0.3,0.8-0.7,1.3-1l0.7-0.5
			c0.2-0.2,0.4-0.2,0.6-0.4l1.2-0.8l1.2-0.7c0.8-0.5,1.5-0.9,2.3-1.4c3-1.9,5.8-3.9,6.8-6.3c0.5-1.2,0.6-2.6,0.5-4.2
			c-0.1-1.6-0.5-3.3-0.9-5c-0.2-0.9-0.5-1.7-0.7-2.7c-0.1-0.6-0.3-1.2-0.3-1.9l0-1c0-0.3,0.1-0.6,0.2-0.9c0.2-1.3,0.8-2.3,1.3-3.3
			c0.6-0.9,1.3-1.8,2-2.5c1.4-1.5,2.9-2.7,4.2-3.9c0.7-0.6,1.4-1.2,2-1.7c0.3-0.3,0.5-0.5,0.8-0.9l0.2-0.3l0.1-0.1l0,0
			c0.1-0.1,0,0.1,0,0l0-0.1l0.3-0.5c0.9-1.3,1.4-2.7,1.8-4.3c0.3-1.6,0.5-3.4,0.7-5.3c0.2-1.9,0.5-3.9,1.2-5.8
			c0.7-1.9,1.8-3.7,3.1-5.3l0.1-0.2c1.1-1,2-2.1,2.6-3.4c0.6-1.3,0.9-2.8,0.9-4.3l1.4-1.5l0,0c5.7-0.7,11.2-2.2,16.3-4.6l-1,3.5l0,0
			c-1.2-1.7-2.3-3.4-3.3-5.4c-0.9-1.9-1.7-4-1.9-6.4c-0.3-2.3,0.3-4.9,1.4-6.9c1.1-2.1,2.7-3.7,4.3-5c1.6-1.4,3.3-2.5,4.9-3.6
			l4.9-3.3c0.8-0.5,1.6-1.1,2.3-1.7c0.7-0.5,1.5-1.2,2.3-1.8c1.6-1.4,3.5-2.4,5.4-3.3c1.9-0.9,3.9-1.6,5.9-2.1
			c2.1-0.5,4.2-0.7,6.3-0.7c2.1,0.1,4.3,0.4,6.3,1.1c2.1,0.8,3.9,1.8,5.7,3.3c0.4,0.4,0.7,0.7,1.1,1l0.3,0.3l0.1,0.1l0.1,0.1
			l0.1,0.1l0,0l0.5,0.6c0.7,0.8,1.3,1.8,1.8,2.7c1,1.9,1.7,3.9,2.1,6c0.8,4.1,0.7,8.2,0.4,12.2l-1.3-1.6l0,0l1.7,0.1
			c0.5,0,1.1,0,1.6-0.1c1-0.1,1.9-0.3,2.5-0.7c1.1-0.7,2-3,3.4-5.1c0.3-0.5,0.7-1,1.1-1.6l0.6-0.8c0.2-0.3,0.4-0.5,0.6-0.7l0.6-0.6
			l0.3-0.3l0.4-0.4c0.5-0.4,0.9-0.9,1.4-1.3c1-0.8,2.1-1.6,3.3-2.2c1.3-0.6,2.7-1.1,4.3-1.2c1.6-0.1,3.3,0.3,4.6,0.9
			c1.4,0.7,2.5,1.5,3.5,2.4c2,1.8,3.4,3.7,4.9,5.2c0.7,0.8,1.5,1.4,2.1,1.8c0.6,0.4,1.3,0.6,1.5,0.6c1,0.1,3.2-0.9,5.1-1.9
			c3.9-2.1,8-4.5,12.4-6.6c2.2-1.1,4.5-2,7.2-2.7l1-0.2c0.3-0.1,0.7-0.1,1.1-0.2c0.7-0.1,1.5-0.2,2.2-0.2c1.6,0,3.3,0.1,5,0.9
			c1.7,0.7,3.3,1.9,4.3,3.4c0.6,0.7,0.9,1.4,1.3,2.1c0.4,0.7,0.6,1.4,0.9,2.2c0.2,0.7,0.4,1.4,0.5,2.1c0.2,0.7,0.2,1.4,0.3,2.1
			c0.1,0.8,0.1,1.3,0.2,1.9l0.1,1.8c0.1,2,0.5,3.9,1.1,4.9c0.3,0.5,0.7,1,1.3,1.5c0.6,0.5,1.4,1,2.2,1.6l2.9,1.7
			c1,0.6,2.2,1.3,3.1,1.9l0.7,0.5l0.8,0.5c0.5,0.3,1.1,0.7,1.6,1.1c1.1,0.8,2.2,1.7,3.3,3c0.6,0.7,1.1,1.5,1.6,2.5
			c0.5,1,0.8,2.4,0.7,3.7c0,1.3-0.4,2.3-0.7,3.1c-0.3,0.8-0.6,1.5-0.9,2c-0.6,1.1-1,2-1.4,2.9c-0.4,0.9-0.7,1.8-0.9,2.7
			c-0.1,0.4-0.2,0.9-0.3,1.3c-0.1,0.2-0.2,1.2-0.2,1.4l-0.1,1.4l0,0.7l0.1,0.7l0.1,1.3l0.3,1.3c0,0.2,0.1,0.4,0.1,0.7l0.2,0.7
			c0.2,0.4,0.3,0.9,0.4,1.3c0.7,1.8,1.7,3.7,2.8,5.6c1.1,2,2.3,4,3.5,6.2c0.3,0.5,0.6,1.1,0.9,1.7c0.3,0.6,0.6,1.2,0.8,1.8
			c0.5,1.3,1,2.5,1.3,3.9c0.2,0.7,0.4,1.3,0.5,2l0.3,2.1c0,0.4,0.1,0.7,0.1,1.1l0,1.1c0,0.8,0,1.5,0,2.3c-0.1,0.6-0.1,1.2-0.2,1.8
			l-0.1,0.9l-0.1,1.1c-0.1,1-0.3,1.9-0.3,2.9c-0.1,1,0,1.9,0,2.9c0,0.5,0.1,1,0.1,1.4c0.1,0.5,0.1,1,0.2,1.4l0.2,1.4l0.4,1.4
			c0.1,0.5,0.3,0.9,0.4,1.4c0.2,0.4,0.3,0.9,0.5,1.3c0.7,1.8,1.8,3.4,2.9,4.9c1.2,1.5,2.7,2.7,4.4,3.9c1.7,1.1,3.7,1.9,5.8,2.6
			l1.3,2.1l0,0c-1.3,3-3.7,5.2-6,6.9c-2.4,1.8-4.8,3.2-7.2,4.7c-2.4,1.5-4.7,3-6.6,4.8c-1.9,1.8-3.4,3.9-3.7,6.3l-0.1,0.9l0,0.9
			c0,0.3,0.1,0.7,0.1,1l0.1,0.5l0.1,0.5c0.2,1.4,0.4,2.9,0.5,4.4c0.1,1.5,0.1,3-0.2,4.6c-0.1,0.8-0.5,1.7-0.9,2.5
			c-0.5,0.8-1.2,1.5-2,1.9c-1.6,0.9-3.1,1.1-4.5,1.4c-1.4,0.3-2.6,0.6-3.8,1.2c-2.3,1-4.1,2.9-5.5,5.1c-1.4,2.2-2,4.6-1.6,7.1
			c0.4,2.5,1.6,4.9,3,7.4c1.3,2.5,2.9,5,3.6,8.1c0.4,1.5,0.5,3.2,0.3,4.8c-0.3,1.6-0.9,3.2-1.7,4.5c-0.5,0.7-0.9,1.4-1.4,1.9
			l-0.3,0.4l-0.1,0.1c-0.1,0.1-0.1,0.1-0.1,0.2l-0.2,0.2c-0.3,0.3-0.6,0.6-0.9,0.8c-1.2,1-2.5,1.8-3.8,2.6c-2.6,1.4-5.4,2.5-8.4,3
			c-2.9,0.5-6.1,0.7-9.2-0.5c-1.5-0.6-3-1.6-4-3c-1.1-1.3-1.7-2.9-2-4.5l2.4-1.5l0,0c0.7,0.5,1.4,1.1,2.1,1.9
			c0.3,0.4,0.6,0.9,0.8,1.5c0.2,0.6,0.3,1.4,0.1,2.1c-0.4,1.4-1.3,2.2-2.1,2.8c-0.8,0.6-1.6,1-2.5,1.3c-1.6,0.7-3.3,1.1-4.9,1.4
			c-1.6,0.3-3.3,0.6-5,0.7c-0.9,0-1.7,0.1-2.7,0l-0.4-0.1c-0.2,0-0.3,0-0.4-0.1l-0.1,0l-0.1,0l-0.2,0l-0.3-0.1l-1.2-0.3
			c-1.6-0.5-3.1-1-4.6-1.5c-3-1-5.9-2-8.8-2.5c-0.4-0.1-0.7-0.1-1.1-0.2c-0.4-0.1-0.7-0.1-1-0.1c-0.3,0-0.6-0.1-1.1-0.1l-0.6,0
			l-0.1,0l-0.1,0c0.1,0,0,0,0,0l0,0l-0.3,0c-0.7,0.1-1.4,0.1-2,0.2l-1,0.2c-0.3,0.1-0.6,0.1-1,0.3c-2.5,0.8-4.7,2.5-7.1,4.6
			c-0.6,0.5-1.2,1-1.9,1.6c-0.3,0.3-0.7,0.5-1,0.8l-1.1,0.8c-0.7,0.5-1.6,1-2.4,1.4c-0.4,0.2-0.9,0.4-1.3,0.6
			c-0.4,0.2-0.9,0.4-1.4,0.5c-0.9,0.2-1.9,0.6-2.8,0.6c-1,0.1-1.9,0.2-2.9,0.2c-1,0-2.1-0.1-2.8-0.2l-1.2-0.2l-0.6-0.1l-0.1,0
			l-0.1,0l-0.2,0l0,0l-0.4-0.1c-0.5-0.2-1.1-0.3-1.6-0.5l-1.3-0.6c-0.9-0.4-1.6-0.9-2.4-1.4c-1.5-1-2.8-2-4.1-3.1
			c-2.6-2.2-5-4.5-7.2-6.9c-2.3-2.4-4.4-5-6.4-7.8l-0.7-1.1l-0.8-1.3l-0.4-0.6l-0.3-0.5l-0.3-0.5l-0.1-0.1L96,208l-0.1-0.2
			c-0.5-1.1-1.1-1.9-1.9-2.6c-1.5-1.4-3.8-2.3-6.4-2.7c-2.6-0.4-5.6-0.4-8.7-0.3c-3.1,0.1-6.2,0.4-9.6,0.4c-1.7,0-3.4,0-5.1-0.1
			c-0.9-0.1-1.8-0.2-2.7-0.3l-1.5-0.3l-1.2-0.3L58.6,201.6z"/>
	</g>
	<g>

		<defs>
			<path id="SVGID_1_" d="M59.7,197.3c12,3,33.9-5,40,9.2c2.7,6.4,16.5,21.7,23.2,23.4c15.7,3.9,16.7-10.7,30.4-10.5
				c6.9,0.1,13,3.5,19.5,5.4c3.8,1.1,23-1.5,13.9-8.2c2.5,12.1,20.7,6.3,25.9,0.5c11-12.1-9.2-20.6-2.3-33.1
				c7.9-14.4,20.3-0.5,16.5-21.5c-2.4-13.9,19-16.4,23.5-26.8c-14-0.9-21.6-14.3-19.1-28.2c3-16.8-12.8-23.7-10.8-39.3
				c1.5-11.5,10-12.1-1.4-19.7c-8.6-5.8-13.1-5.8-13.2-16.3c-0.5-26.6-28.3-1.5-36.8-1c-8.5,0.5-11.2-20.2-25.1-7.4
				c-6.9,6.4-3.7,10.9-14.1,9.7c0.6-6.9,0.3-14.8-4.6-20.3c-7.5-8.5-21.4-5.8-29.1,0.8c-11.1,9.4-27.1,13-13.9,30.9
				c-5.5,2.3-11.2,3.6-17.1,4c0,3.5-1.3,6.5-3.9,8.9C55,64.9,59.3,72.4,54.3,79c-3,4.1-11.8,8.4-9.9,14.7c4,12.9,2.2,15.9-10.2,23.3
				c-8.1,4.8-10.9,11.7-6.9,20.6c4.7,10.2,17,5.1,20.9,14.7c3.5,8.8-2.7,17-5.8,24.7C39.9,183.3,51.4,195.2,59.7,197.3z"/>
		</defs>
		<clipPath id="SVGID_2_">
			<use xlink:href="#SVGID_1_"  overflow="visible"/>

		</clipPath>


		<g clip-path="url(#SVGID_2_)">




			<g>
			<animateTransform attributeName="transform"
				 attributeType="XML"
				 type="rotate"
				from="0 128 119"
				to="360 128 119"
				dur="10s"
				repeatCount="indefinite"  />


				<path fill="#374BA0" d="M59.7,197.3c12,3,33.9-5,40,9.2c2.7,6.4,16.5,21.7,23.2,23.4c15.7,3.9,16.7-10.7,30.4-10.5
					c6.9,0.1,13,3.5,19.5,5.4c3.8,1.1,23-1.5,13.9-8.2c2.5,12.1,20.7,6.3,25.9,0.5c11-12.1-9.2-20.6-2.3-33.1
					c7.9-14.4,20.3-0.5,16.5-21.5c-2.4-13.9,19-16.4,23.5-26.8c-14-0.9-21.6-14.3-19.1-28.2c3-16.8-12.8-23.7-10.8-39.3
					c1.5-11.5,10-12.1-1.4-19.7c-8.6-5.8-13.1-5.8-13.2-16.3c-0.5-26.6-28.3-1.5-36.8-1c-8.5,0.5-11.2-20.2-25.1-7.4
					c-6.9,6.4-3.7,10.9-14.1,9.7c0.6-6.9,0.3-14.8-4.6-20.3c-7.5-8.5-21.4-5.8-29.1,0.8c-11.1,9.4-27.1,13-13.9,30.9
					c-5.5,2.3-11.2,3.6-17.1,4c0,3.5-1.3,6.5-3.9,8.9C55,64.9,59.3,72.4,54.3,79c-3,4.1-11.8,8.4-9.9,14.7
					c4,12.9,2.2,15.9-10.2,23.3c-8.1,4.8-10.9,11.7-6.9,20.6c4.7,10.2,17,5.1,20.9,14.7c3.5,8.8-2.7,17-5.8,24.7
					C39.9,183.3,51.4,195.2,59.7,197.3z"/>
				<path fill="#FFFFFF" d="M61.8,188l1.2,0.2c0.1,0,0.3,0,0.4,0l0.8,0l0.9,0c1.2,0,2.6,0,4-0.1c2.9-0.1,6.1-0.2,9.6-0.1
					c3.5,0.1,7.2,0.2,11.4,1.1c2.1,0.5,4.3,1.1,6.5,2.2c2.2,1.1,4.5,2.6,6.4,4.6c1.9,2,3.4,4.3,4.3,6.6l0.4,0.9l0.2,0.5l0.1,0.2
					l0.3,0.5l0.5,0.8c1.3,2.2,3.1,4.6,4.9,6.9c1.8,2.3,3.8,4.4,5.8,6.4c1,1,2,1.9,3,2.6c0.2,0.2,0.5,0.3,0.7,0.5
					c0.2,0.1,0.5,0.4,0.6,0.4c0.2,0.1,0.4,0.2,0.5,0.3c0.1,0.1,0.1,0.1,0.2,0.1l0,0l0,0c0.1,0-0.8-0.2-0.4-0.1l0.1,0l0.1,0l0.6,0.1
					l1.2,0.3c1,0.3,1.1,0.2,1.5,0.2c0.3,0.1,0.8,0.1,1.2,0.1c0.5,0.1,0.8-0.1,1.3-0.1c1.6-0.2,3.5-1.5,6.1-3.4
					c2.5-1.9,6.1-4.4,10.3-5.6c0.5-0.2,1-0.3,1.6-0.4l1.6-0.3c1.1-0.1,2.1-0.1,3.1-0.1l0.4,0l0.3,0l0.1,0l0.1,0l0.6,0.1
					c0.2,0,0.4,0,0.6,0.1l0.8,0.1l0.8,0.1l0.7,0.1c0.5,0.1,0.9,0.2,1.4,0.3c3.7,0.9,6.8,2.3,9.7,3.5c1.5,0.6,2.9,1.2,4.2,1.8
					l1.5,0.5c0.4,0.1,1.1,0.1,1.8,0.2c2.7,0.1,5.8-0.3,8.2-1c0.6-0.2,1.1-0.4,1.5-0.6c0.1,0,0.2-0.1,0.2-0.1c0,0,0.1,0,0.1,0
					c0,0,0,0,0,0c0,0,0,0,0,0c0,0,0,0,0,0.1c0,0-0.1,0.2-0.1,0.3c-0.1,0.3,0,0.6,0.1,0.7c0,0,0.1,0.1,0.1,0.1c0,0,0,0,0-0.1
					c-0.1-0.2-0.6-0.7-1-1.1l0,0l5-3.2c0.4,2.1,1.4,3.3,3.1,4c1.8,0.7,4.2,0.7,6.6,0.2c2.4-0.5,4.8-1.4,7-2.5c1.1-0.6,2.1-1.3,3-2
					c0.2-0.2,0.4-0.4,0.6-0.5l0.1-0.1l0,0l0,0c-0.2,0.2,0,0-0.1,0.1l0.1-0.1l0.3-0.4l0.3-0.4l0.2-0.2l0.1-0.2
					c0.1-0.2,0.3-0.4,0.4-0.6c1.1-1.9,1.4-3.6,0.9-5.7c-0.5-2.1-1.8-4.5-3.2-7c-1.3-2.5-2.9-5.3-3.5-8.9c-0.3-1.7-0.2-3.6,0.2-5.4
					c0.2-0.9,0.5-1.7,0.9-2.6l0.6-1.2l0.6-1c0.1-0.2,0.2-0.3,0.3-0.5l0.4-0.5c0.3-0.4,0.5-0.7,0.8-1.1c0.3-0.3,0.5-0.7,0.8-1
					l0.9-0.9c1.3-1.2,2.8-2.2,4.4-2.9c1.6-0.7,3.2-1.2,4.7-1.5c1.4-0.3,2.7-0.6,3.1-0.9c0.2-0.2,0.3-0.2,0.4-0.4
					c0.1-0.2,0.3-0.5,0.3-0.9c0.2-0.9,0.2-2.1,0.1-3.4c-0.1-1.3-0.3-2.6-0.5-3.9l-0.1-0.5l-0.1-0.7l-0.1-0.5c0-0.2,0-0.3-0.1-0.6
					c0-0.5,0-1,0-1.5l0.1-1.4c0.3-1.8,0.9-3.6,1.8-5.2c0.9-1.5,2.1-2.8,3.2-3.9c2.4-2.2,4.9-3.8,7.3-5.4c2.4-1.5,4.8-2.9,6.9-4.5
					c2.1-1.5,3.8-3.3,4.5-5.1l0,0l2.7,4.4c-0.7,0.2-1.4,0.4-2.1,0.5c-0.4,0.1-0.7,0.2-1.1,0.2l-1.1,0.1c-0.7,0-1.5,0.1-2.3,0
					c-0.8-0.1-1.5-0.2-2.3-0.3c-0.8-0.1-1.5-0.3-2.3-0.5l-1.1-0.3c-0.4-0.1-0.7-0.3-1.1-0.4c-0.7-0.3-1.5-0.6-2.2-1
					c-0.7-0.4-1.4-0.8-2.1-1.3c-2.6-1.9-5-4.2-6.8-6.9c-1.7-2.7-3.1-5.7-3.9-8.8c-0.8-3.1-1.2-6.2-1-9.3c0-1.6,0.2-3.1,0.5-4.6
					l0.3-2.9c0-0.2-0.1-0.4-0.1-0.6c0-0.1,0-0.2,0-0.3c0-0.1,0-0.3-0.1-0.4c0-0.3-0.1-0.6-0.1-0.9c0-0.3-0.2-0.7-0.2-1
					c-0.1-0.6-0.5-1.4-0.7-2.1l-0.5-1.2l-0.3-0.6l-0.3-0.6l-0.7-1.3l-0.8-1.4l-1.7-3.1c-1.2-2.2-2.5-4.7-3.6-7.6
					c-0.3-0.7-0.5-1.5-0.7-2.3l-0.3-1.2c-0.1-0.4-0.2-0.8-0.3-1.2c-0.2-0.8-0.3-1.7-0.5-2.5c-0.1-0.9-0.1-1.7-0.2-2.6l-0.1-1.3
					c0-0.4,0-0.8,0.1-1.3c0.1-0.8,0.1-1.7,0.2-2.5l0-0.3l0-0.3l0-0.1l0.1-0.4l0.1-0.4l0.1-0.7c0.2-1,0.4-1.7,0.6-2.5
					c0.5-1.6,1.1-3.2,1.7-4.6c0.6-1.4,1.4-2.7,1.8-3.5c0.2-0.4,0.4-0.7,0.3-0.7c0,0,0,0,0,0.1c0,0,0,0.1-0.1,0.2
					c0,0.2-0.1,0.6-0.1,1c0,0.8,0.2,2,0.5,2.5c0.3,0.6,0.5,0.8,0.5,0.8c0.1,0-0.4-0.5-1.1-1c-0.3-0.3-0.6-0.5-1-0.8l-0.5-0.4
					l-0.7-0.5l-0.7-0.5l-0.6-0.4l-0.6-0.4l-0.7-0.4l-3.1-2c-1.2-0.8-2.5-1.7-4-3c-1.5-1.4-3-3.2-4-5.3c-0.3-0.5-0.5-1-0.7-1.5
					l-0.3-0.8l-0.2-0.7c-0.1-0.5-0.3-1-0.4-1.4l-0.2-1.3c-0.3-1.8-0.4-3.3-0.4-4.8l0-1.6c0-0.5,0-1.3-0.1-1.5c0-0.3,0-0.6-0.1-0.8
					c-0.1-0.3-0.1-0.6-0.1-0.8c0-0.1-0.1-0.2-0.1-0.3c0-0.1,0-0.2-0.1-0.2c0,0,0-0.2,0-0.1c0.1,0,0.5,0.4,0.7,0.4
					c0.3,0,0.2,0-0.1-0.1c-0.2,0-0.4,0-0.7,0l-0.5,0l-0.5,0.1c-1.5,0.3-3.3,0.8-5.2,1.6c-1.9,0.7-3.9,1.7-6,2.6c-2.1,1-4.2,2-6.5,3
					c-1.2,0.5-2.4,1-3.9,1.5l-1.2,0.4c-0.4,0.1-0.9,0.2-1.4,0.3c-0.4,0.1-1.1,0.2-1.7,0.2l-0.5,0c-0.3,0,0.4,0-0.6,0l-0.1,0l-0.1,0
					l-0.4,0c-3.2-0.2-5.3-1.4-6.8-2.6c-1.5-1.2-2.6-2.3-3.5-3.4c-1.7-2.1-3-3.9-4.1-5.2c-0.5-0.6-1-1-1.3-1.3
					c-0.3-0.2-0.4-0.3-0.6-0.4c-0.2-0.1-0.7,0-1.3,0.1c-0.3,0.1-0.7,0.2-1,0.4c-0.4,0.2-0.7,0.4-1.1,0.6c-0.4,0.2-0.8,0.5-1.2,0.8
					l-0.1,0.1l-0.1,0.1l0,0c0,0-0.2,0.1,0.1-0.1l-0.3,0.3l-0.7,0.6c-0.1,0.1-0.2,0.2-0.3,0.3l-0.2,0.2l-0.4,0.4
					c-0.3,0.3-0.6,0.7-0.9,1c-0.6,0.7-1.2,1.5-2,2.6c-0.2,0.3-0.4,0.5-0.6,0.9c-0.2,0.3-0.5,0.6-0.8,1l-0.5,0.5
					c-0.2,0.2-0.4,0.3-0.6,0.5c-0.2,0.2-0.4,0.3-0.6,0.5l-0.7,0.4c-1.9,1-3.7,1.1-5.1,1c-0.7,0-1.4-0.1-2.1-0.2l-1.9-0.3l0,0
					l-2.8-3.4c0.3-3.7,0.2-7.4-0.6-10.7c-0.4-1.7-1-3.2-1.8-4.6c-0.4-0.7-0.8-1.3-1.3-1.9l-0.4-0.4l0,0c0,0,0.3,0.3,0.2,0.2l0,0
					l-0.1-0.1l-0.1-0.1l-0.3-0.3c-0.4-0.3-0.7-0.7-1.1-1c-0.9-0.7-2.4-1.5-3.8-1.9c-1.5-0.4-3-0.6-4.7-0.6c-1.6,0.1-3.3,0.3-4.9,0.7
					c-1.6,0.5-3.2,1-4.7,1.8c-1.5,0.8-2.9,1.7-4.1,2.7c-0.7,0.6-1.5,1.3-2.4,2c-0.8,0.7-1.7,1.3-2.5,1.9L89.3,24
					c-1.5,1.1-3,2.2-4.2,3.3c-0.6,0.6-1.2,1.1-1.6,1.7c-0.4,0.6-0.8,1.1-1.1,1.6c-0.5,1-0.6,1.9-0.5,3.1c0.2,1.1,0.6,2.5,1.4,3.9
					C84,39,85,40.4,86,41.8l0,0L84,49.2c-6.1,1.9-12.5,2.8-18.7,2.6l0,0l2.9-3.1c0.1,2-0.3,4.2-1.1,6.2c-0.8,2-2.1,3.8-3.6,5.3
					l0.3-0.3c-1.8,2.3-2.4,4.8-2.5,8.3c-0.1,1.7-0.1,3.7-0.5,5.9c-0.3,2.2-1.1,4.6-2.4,6.7l-0.5,0.8l-0.1,0.1l-0.2,0.2L57.6,82
					l-0.2,0.3l-0.2,0.3c-0.1,0.1-0.2,0.2-0.3,0.4l-0.7,0.7c-0.8,0.8-1.5,1.5-2.2,2.1c-1.4,1.3-2.6,2.4-3.5,3.5
					c-0.5,0.5-0.8,1.1-1.1,1.5c-0.2,0.4-0.3,0.8-0.3,0.9c0,0,0,0.1,0,0.1c0,0,0,0.1,0,0.1c0,0.1,0.1,0.2,0.1,0.2l0.8,2.6
					c0.3,1,0.6,2,0.8,3c0.1,0.5,0.3,1,0.3,1.6l0.3,1.7c0.1,1.2,0.2,2.4,0.1,3.8c0,0.7-0.2,1.4-0.3,2.1c-0.1,0.7-0.4,1.4-0.6,2.1
					c-0.5,1.4-1.2,2.7-2,3.7c-0.4,0.6-0.8,1-1.2,1.5l-0.6,0.7l-0.6,0.6c-1.7,1.6-3.4,2.8-5,4c-0.8,0.6-1.6,1.1-2.4,1.6l-1.2,0.8
					l-1,0.7c-0.2,0.1-0.4,0.3-0.5,0.4l-0.3,0.3c-0.2,0.2-0.4,0.4-0.7,0.6c-0.5,0.4-0.9,0.9-1.3,1.3c-0.7,0.9-1.2,1.8-1.4,2.7
					c-0.2,0.9-0.3,1.7-0.1,2.8c0.2,1,0.5,2.2,1.1,3.3l0.2,0.4l0.1,0.2l0,0c0.1,0.1-0.4-0.9-0.2-0.4l0,0.1l0.1,0.1l0.7,1.2l0.2,0.3
					l0.1,0c0,0,0.1,0,0.1,0c0,0,0,0,0,0c0,0,0.1,0.1,0.2,0.1c0.8,0.9,3.2,1.5,7.2,2.5c2,0.5,4.5,1.3,7.2,3.1
					c2.6,1.7,4.9,4.6,6.1,7.4l0.1,0.1l0,0.1c0.1,0.2-0.1-0.4,0.2,0.5l0.1,0.2l0.1,0.3L56,151l0.1,0.3l0.1,0.2l0.1,0.3l0.3,1.2
					l0.3,1.2c0.1,0.4,0.1,0.7,0.2,1.1c0.1,0.7,0.2,1.4,0.2,2.1c0.1,2.8-0.3,5.4-0.9,7.7c-1.2,4.7-3.1,8.4-4.5,11.6
					c-0.4,0.8-0.7,1.6-1,2.3l-0.4,1l-0.1,0.1l0,0c0.4-1.1,0.1-0.3,0.2-0.5l0,0.1l-0.1,0.3l0,0.2c0-0.1,0.1-0.2,0.1-0.2
					c0.1-0.2,0.1-0.3,0.1-0.5c0-0.1,0-0.2,0-0.2l0-0.1c0-0.1,0-0.1,0-0.2c0-0.1,0-0.1,0-0.2c0-0.1,0-0.1,0-0.1
					c0.1,0.1,0.2,0.4,0.4,0.8c0.4,0.8,1.2,1.7,2.1,2.7c0.9,0.9,1.9,1.9,3,2.7c1.1,0.8,2.2,1.6,3.3,2.1c1.1,0.6,2.1,0.9,2.6,1
					L61.8,188z M57.4,206.5c-3.1-0.9-5.4-2.1-7.5-3.4c-2.1-1.3-3.9-2.7-5.6-4.3c-1.7-1.5-3.3-3.2-4.8-5.1c-1.5-1.9-2.9-3.9-4.1-6.4
					c-0.6-1.3-1.1-2.7-1.5-4.4c-0.2-0.8-0.3-1.8-0.4-2.8c0-0.5,0-1,0-1.6l0.1-0.9l0-0.4c0-0.1,0.1-0.4,0.1-0.6
					c0.1-0.4,0.2-0.8,0.3-1.2l0.2-0.6l0.1-0.2l0.1-0.3l0-0.1l0.2-0.6l0,0l0.1-0.2l0.7-1.5c0.5-0.9,0.9-1.8,1.4-2.7
					c1.8-3.4,3.4-6.2,4.1-8.6c0.4-1.2,0.6-2.2,0.7-3.1c0-0.2,0-0.4,0-0.7c0-0.1,0-0.3,0-0.3c0,0,0-0.1,0-0.1c0,0,0-0.1,0-0.1
					c0,0,0,0,0,0l0-0.2l-0.1-0.3l-0.2-0.7l-0.1-0.3l0-0.2c0.3,0.8,0.1,0.2,0.1,0.4l0,0l0,0c-0.2-0.6-0.3-0.7-0.6-1.1
					c-0.4-0.4-1.3-0.9-2.8-1.4c-1.5-0.5-3.5-1.1-5.7-2c-0.6-0.3-1.1-0.5-1.7-0.8c-0.6-0.3-1.2-0.6-1.8-1c-0.6-0.4-1.2-0.8-1.8-1.3
					c-0.6-0.4-1.1-1-1.7-1.5c-0.3-0.3-0.5-0.5-0.8-0.8c-0.3-0.3-0.5-0.7-0.8-1c-0.3-0.4-0.5-0.7-0.8-1.1l-0.4-0.5l-0.2-0.3l-0.6-1.2
					l-0.4-0.8l-0.2-0.4l-0.3-0.8c-0.8-2.2-1.5-4.6-1.6-7.3c-0.2-2.6,0.2-5.5,1.2-8.1c1-2.6,2.5-4.9,4.2-6.7c0.9-0.9,1.8-1.7,2.7-2.5
					c0.4-0.4,1-0.7,1.5-1.1l0.8-0.5c0.3-0.2,0.4-0.2,0.6-0.4l1.3-0.8l1.1-0.6c0.8-0.4,1.5-0.9,2.2-1.3c2.9-1.7,5.3-3.6,5.8-4.8
					c0.3-0.6,0.5-1.5,0.4-2.9c-0.1-1.3-0.4-3-0.7-4.5l-0.7-2.7c-0.2-0.8-0.4-1.6-0.3-2.5c0-0.4,0-0.9,0-1.3c0-0.4,0.1-0.8,0.2-1.2
					c0.1-0.8,0.4-1.5,0.7-2.3c0.3-0.7,0.7-1.3,1-1.9c0.7-1.1,1.5-2.1,2.3-2.8c1.6-1.6,3.1-2.8,4.5-4c0.7-0.6,1.3-1.1,1.9-1.6
					l0.3-0.3c0.1-0.1,0.1-0.1,0.2-0.2l0.2-0.3l0.2-0.3l0.1-0.1l0,0c0.1-0.1-0.1,0.2-0.1,0.1l0,0l0.3-0.4c0.7-1,1.2-2.1,1.5-3.5
					c0.3-1.4,0.5-3.1,0.8-5.1c0.2-1.9,0.6-4.1,1.4-6.2c0.8-2.1,2-4.1,3.5-5.8l0.3-0.3c1-0.8,1.7-1.7,2.3-2.8c0.5-1,0.8-2.2,0.9-3.5
					l2.9-3.1l0,0c5.5-0.9,10.7-2.8,15.4-5.4l-2.1,7.4l0,0c-1.2-1.8-2.4-3.6-3.4-5.8c-1-2.1-1.9-4.5-2.1-7.3
					c-0.3-2.7,0.4-5.9,1.7-8.3c1.4-2.4,3.2-4.2,4.9-5.7c1.7-1.5,3.5-2.6,5.2-3.8l4.9-3.2c0.8-0.5,1.5-1.1,2.3-1.6
					c0.7-0.5,1.4-1.1,2.2-1.7c1.8-1.5,3.8-2.6,5.8-3.6c2-1,4.2-1.6,6.4-2.2c2.2-0.5,4.5-0.7,6.8-0.7c2.3,0.1,4.7,0.5,6.9,1.2
					c2.3,0.9,4.3,2,6.4,3.8c0.4,0.4,0.7,0.7,1.1,1.1l0.3,0.3l0.1,0.1l0.1,0.1l0.2,0.2l0,0l0.6,0.7c0.7,0.9,1.4,2,1.9,3
					c1.1,2.1,1.8,4.3,2.2,6.5c0.8,4.4,0.7,8.6,0.3,12.7l-2.8-3.4h0l1.6,0c0.5,0,1-0.1,1.4-0.1c0.9-0.1,1.4-0.4,1.6-0.6
					c0,0,0,0,0.1-0.1c0,0,0-0.1,0-0.1c0,0,0,0,0.1-0.1l0.1-0.2c0-0.1,0.1-0.3,0.2-0.4c0.1-0.1,0.2-0.4,0.3-0.6
					c0.4-0.9,1-2.1,1.7-3.3c0.4-0.6,0.8-1.2,1.2-1.8l0.7-0.9l0.4-0.5l0.3-0.4l0.6-0.7l0.3-0.3l0.5-0.5c0.5-0.5,0.9-1,1.5-1.4
					c0.5-0.5,1.1-0.9,1.7-1.4c0.6-0.5,1.3-0.9,2-1.3c1.5-0.8,3.3-1.5,5.3-1.6c2.1-0.2,4.3,0.3,6.1,1.1c1.8,0.8,3.1,1.8,4.3,2.8
					c2.3,2,3.8,3.9,5.2,5.2c0.7,0.6,1.3,1.1,1.7,1.3c0.2,0.1,0.3,0.1,0.2,0c0,0,0,0-0.1-0.1c0,0,0,0-0.1,0c-0.1,0-0.3-0.1-0.4-0.1
					c-0.1,0-0.1,0-0.2,0c-0.1,0,0,0,0,0l0.1,0l0.4,0l0.1,0l0.1,0c-1,0-0.3,0-0.5,0l0,0c0,0-0.1,0,0-0.1l0.3-0.1l0.5-0.2
					c0.7-0.4,1.6-0.8,2.5-1.3c1.8-1,3.8-2.2,5.8-3.4c2.1-1.2,4.2-2.4,6.5-3.6c2.3-1.2,4.8-2.3,7.9-3.1l1.2-0.3
					c0.4-0.1,0.8-0.2,1.3-0.2c0.8-0.2,1.8-0.2,2.8-0.3c2,0,4.3,0.1,6.7,1.2c0.6,0.2,1.2,0.5,1.8,0.9c0.6,0.3,1.2,0.7,1.7,1.1
					c0.5,0.4,1,0.9,1.5,1.3c0.5,0.5,0.8,0.9,1.2,1.4c0.8,1,1.3,1.9,1.8,2.9c0.3,0.5,0.4,0.9,0.6,1.4l0.5,1.4
					c0.3,0.9,0.5,1.7,0.7,2.5c0.2,0.8,0.3,1.7,0.4,2.6c0.1,1,0.2,1.4,0.2,2l0.1,0.9l0,0.2l0,0.4l0,0.1l0,0.3
					c0.1,0.9,0.2,1.6,0.3,2.1c0,0.1,0.1,0.3,0.1,0.4c0,0.1,0.1,0.1,0.1,0.2l0,0.1c0,0,0,0,0,0c0,0,0,0.1,0,0.1c0.1,0,0-0.1,0.3,0.1
					c0.2,0.2,0.9,0.6,1.6,1l2.9,1.6l0.8,0.4l0.9,0.5l0.9,0.5l0.7,0.5l0.7,0.5l0.9,0.6c0.6,0.4,1.2,0.8,1.8,1.2
					c1.2,0.9,2.5,1.9,4.1,3.7c0.8,0.9,1.6,2.1,2.4,3.7c0.8,1.6,1.3,3.9,1.2,5.9c-0.1,2-0.6,3.6-1,4.7c-0.4,1.1-0.8,1.9-1.1,2.5
					c-0.6,1.3-1,2-1.3,2.7c-0.3,0.7-0.5,1.3-0.6,2c-0.1,0.3-0.2,0.7-0.2,0.8l0,0.2l-0.1,0.4l-0.1,0.4l0,0.1l0,0.1
					c0,0.1,0.1-0.4,0-0.2l0,0.1c0,0.3,0,0.6,0,0.9l0,0.5l0.1,0.5c0,0.3,0.1,0.6,0.1,0.9c0.1,0.3,0.2,0.6,0.2,0.9l0.1,0.5l0.2,0.5
					c0.1,0.3,0.2,0.7,0.3,1c0.6,1.4,1.4,3,2.5,4.9c1.1,1.9,2.3,3.9,3.6,6.4l0.5,0.9l0.5,1c0.3,0.7,0.6,1.3,0.9,2
					c0.5,1.5,1.1,2.9,1.5,4.5c0.2,0.8,0.4,1.6,0.6,2.4l0.4,2.5c0,0.4,0.1,0.8,0.1,1.3l0,1.5c0,1,0,1.9,0,2.9
					c-0.1,0.7-0.1,1.2-0.2,1.8l-0.1,0.9l0,0.4l-0.1,0.8l0,0.1c-0.1,0.8-0.3,1.5-0.3,2.3c-0.2,1.5-0.1,3,0,4.5c0.2,3,0.9,5.8,2.3,8.5
					c0.7,1.4,1.6,2.6,2.8,4c1.2,1.3,2.8,2.5,4.7,3.8l2.7,4.4c0,0,0,0,0,0c-0.7,1.7-1.8,3.2-2.9,4.4c-1.1,1.2-2.4,2.3-3.6,3.2
					c-2.5,1.9-5,3.3-7.3,4.8c-2.4,1.5-4.6,3-6.4,4.6c-1.8,1.7-2.9,3.4-3.2,5.4l-0.1,0.7c0,0.2,0,0.4,0,0.6c0,0.1,0,0.3,0,0.4
					l0.1,0.5l0,0.3l0,0.1c0-0.1,0,0.2,0-0.1l0,0l0,0.1l0.1,0.6c0.2,1.5,0.4,3,0.6,4.5c0.1,1.6,0.1,3.2-0.2,5.1c-0.2,0.9-0.5,2-1.2,3
					c-0.6,1-1.6,1.9-2.6,2.5c-1,0.6-1.9,0.9-2.7,1.1c-0.8,0.2-1.6,0.4-2.2,0.5c-1.3,0.3-2.4,0.6-3.4,1c-1,0.4-1.8,1-2.6,1.8
					c-0.4,0.4-0.8,0.8-1.1,1.2c-0.2,0.2-0.3,0.4-0.5,0.7l-0.2,0.3c-0.1,0.1-0.2,0.3-0.3,0.4l-0.5,0.8l-0.4,0.7
					c-0.2,0.5-0.4,1-0.5,1.5c-0.2,1-0.3,2-0.1,3c0.3,2.1,1.5,4.4,2.8,6.8c1.3,2.5,2.9,5.1,3.8,8.4c0.4,1.7,0.6,3.6,0.3,5.5
					c-0.3,1.9-1,3.6-1.9,5.1l-0.8,1.1l-0.2,0.3l-0.2,0.2l-0.3,0.4l-0.3,0.4l-0.1,0.1l-0.1,0.2l-0.1,0.1l-0.2,0.2
					c-0.3,0.3-0.6,0.6-1,0.9c-1.3,1.1-2.7,2-4.1,2.8c-2.8,1.5-5.7,2.6-8.9,3.2c-1.6,0.3-3.2,0.5-4.9,0.4c-1.7-0.1-3.5-0.3-5.2-1
					c-1.8-0.7-3.5-1.9-4.7-3.5c-1.3-1.6-1.9-3.4-2.3-5.2l5-3.2l0,0c0.8,0.6,1.6,1.1,2.5,2.2c0.2,0.2,0.4,0.6,0.6,0.9
					c0.2,0.3,0.4,0.7,0.5,1.2c0.2,0.4,0.2,1,0.3,1.5c0,0.5,0,1.1-0.2,1.6c-0.1,0.5-0.3,1-0.6,1.4c-0.1,0.2-0.2,0.4-0.4,0.6
					c-0.1,0.2-0.2,0.3-0.4,0.5c-0.1,0.1-0.3,0.3-0.4,0.4l-0.4,0.3c-0.3,0.2-0.5,0.4-0.8,0.6c-1,0.7-1.9,1.2-2.8,1.6
					c-1.8,0.8-3.5,1.3-5.3,1.7c-1.7,0.4-3.5,0.7-5.3,0.8c-0.9,0.1-1.8,0.1-3,0l-0.6-0.1l-0.5-0.1l-0.1,0l-0.1,0l0,0l-0.2-0.1
					l-0.3-0.1l-1.3-0.3c-1.7-0.4-3.3-0.9-4.8-1.4c-3.1-1-5.9-1.8-8.5-2.2c-0.3-0.1-0.6-0.1-1-0.1l-0.5,0l-0.4,0l-0.4,0
					c-0.1,0-0.4,0-0.6,0l-0.6,0l-0.1,0l-0.1,0c0.3,0,0.1,0,0.1,0l0,0l-0.2,0c-0.5,0.1-1.1,0.1-1.6,0.2l-0.7,0.2
					c-0.2,0.1-0.5,0.1-0.7,0.2c-1.9,0.7-3.6,2.1-6,4.3c-0.6,0.6-1.2,1.1-1.9,1.7c-0.4,0.3-0.7,0.6-1.1,0.9l-1.2,0.9l-0.6,0.4
					l-0.7,0.4l-1.4,0.8c-0.5,0.3-1,0.5-1.6,0.7c-0.5,0.2-1,0.5-1.6,0.6c-1.1,0.3-2.3,0.7-3.4,0.8c-1.1,0.1-2.3,0.3-3.5,0.2
					c-1.2,0-2.7-0.1-3.3-0.2l-1.2-0.2l-0.6-0.1l-0.1,0l-0.1,0c0.4,0.1-0.5-0.1-0.5-0.1l-0.1,0l-0.5-0.1c-0.7-0.2-1.5-0.4-2-0.7
					L117,235c-0.6-0.3-0.9-0.5-1.4-0.8c-0.4-0.3-0.9-0.5-1.3-0.8c-1.6-1.1-3.1-2.2-4.5-3.3c-2.8-2.3-5.3-4.6-7.7-7.1
					c-2.4-2.5-4.7-5.1-6.9-8.1l-0.8-1.2c-0.3-0.5-0.7-1-1-1.5l-0.5-0.8l-0.3-0.5l-0.3-0.5l-0.1-0.1l0-0.1c0,0.1-0.3-0.7-0.2-0.4l0,0
					l-0.1-0.1c-0.3-0.6-0.7-1-1.1-1.2c-0.4-0.3-0.8-0.5-1.5-0.7c-0.7-0.2-1.6-0.4-2.6-0.5c-2.1-0.3-4.8-0.2-7.7,0
					c-2.9,0.2-6.1,0.5-9.6,0.6c-1.7,0-3.6,0-5.5-0.2l-1.5-0.2l-1.6-0.2c-0.6-0.1-1.3-0.2-1.9-0.4l-1.2-0.3L57.4,206.5z"/>
			</g>
			<g>


			<animateTransform attributeName="transform"
				 attributeType="XML"
				 type="rotate"
				from="0 128 119"
				to="360 128 119"
				dur="10s"
				repeatCount="indefinite"  />
				
				<path fill="#374BA0" d="M59.7,197.3c12,3,33.9-5,40,9.2c2.7,6.4,16.5,21.7,23.2,23.4c15.7,3.9,16.7-10.7,30.4-10.5
					c6.9,0.1,13,3.5,19.5,5.4c3.8,1.1,23-1.5,13.9-8.2c2.5,12.1,20.7,6.3,25.9,0.5c11-12.1-9.2-20.6-2.3-33.1
					c7.9-14.4,20.3-0.5,16.5-21.5c-2.4-13.9,19-16.4,23.5-26.8c-14-0.9-21.6-14.3-19.1-28.2c3-16.8-12.8-23.7-10.8-39.3
					c1.5-11.5,10-12.1-1.4-19.7c-8.6-5.8-13.1-5.8-13.2-16.3c-0.5-26.6-28.3-1.5-36.8-1c-8.5,0.5-11.2-20.2-25.1-7.4
					c-6.9,6.4-3.7,10.9-14.1,9.7c0.6-6.9,0.3-14.8-4.6-20.3c-7.5-8.5-21.4-5.8-29.1,0.8c-11.1,9.4-27.1,13-13.9,30.9
					c-5.5,2.3-11.2,3.6-17.1,4c0,3.5-1.3,6.5-3.9,8.9C55,64.9,59.3,72.4,54.3,79c-3,4.1-11.8,8.4-9.9,14.7
					c4,12.9,2.2,15.9-10.2,23.3c-8.1,4.8-10.9,11.7-6.9,20.6c4.7,10.2,17,5.1,20.9,14.7c3.5,8.8-2.7,17-5.8,24.7
					C39.9,183.3,51.4,195.2,59.7,197.3z"/>
				<path fill="#262262" d="M60.7,192.9l1.2,0.2l0.8,0.1c0.7,0.1,1.3,0.1,2,0.2c1.4,0.1,2.9,0,4.4,0c3-0.1,6.2-0.2,9.6-0.2
					c3.3,0,6.8,0.1,10.4,0.8c1.8,0.4,3.7,0.9,5.5,1.7c1.8,0.8,3.6,2,5.1,3.5c1.5,1.5,2.7,3.3,3.5,5.2l0.5,1l0.3,0.5l0.2,0.4l0.4,0.8
					l0.6,0.9c1.6,2.5,3.5,4.9,5.4,7.2c2,2.3,4.1,4.5,6.3,6.6c1.1,1,2.2,2,3.4,2.8c0.6,0.4,1.1,0.8,1.7,1.1l0.8,0.4
					c0.3,0.1,0.5,0.2,0.7,0.3l0.2,0.1l0,0c0,0-0.3-0.1-0.2,0l0.1,0l0.1,0l0.6,0.1l1.2,0.2c0.9,0.2,1.3,0.2,2,0.2
					c0.6,0.1,1.2,0,1.8,0c0.6,0,1.2-0.2,1.8-0.3c2.4-0.6,4.7-2.3,7.2-4.2c2.5-2,5.5-4.2,9.2-5.2c0.4-0.2,0.9-0.2,1.4-0.3l1.4-0.2
					c0.9-0.1,1.8-0.1,2.7-0.1l0.3,0l0.2,0l0.1,0l0.1,0l0.6,0c0.4,0,0.8,0.1,1.3,0.1c0.5,0,0.9,0.1,1.3,0.2c0.4,0.1,0.9,0.2,1.3,0.3
					c3.4,0.7,6.5,2,9.4,3.2c1.5,0.6,2.9,1.2,4.4,1.7l1.1,0.4l0.3,0.1c0,0,0.1,0-0.1,0l0,0l0.1,0l0.1,0c0.1,0,0.2,0,0.2,0l0.1,0
					c0.6,0.1,1.4,0.1,2.1,0.1c3,0,6.1-0.5,8.8-1.4c0.7-0.2,1.3-0.5,1.8-0.8c0.5-0.3,0.8-0.7,0.9-0.8c0-0.1,0-0.1,0-0.3
					c0-0.1-0.1-0.4-0.3-0.6c-0.3-0.5-0.8-0.9-1.4-1.4l0,0l2.4-1.5c0.3,1.2,0.7,2.3,1.4,3.2c0.7,0.9,1.6,1.6,2.7,2
					c2.2,0.9,4.9,0.8,7.5,0.3c2.6-0.5,5.2-1.4,7.5-2.7c1.2-0.6,2.3-1.4,3.2-2.2c0.2-0.2,0.5-0.4,0.7-0.6l0.2-0.2c0,0,0.1-0.1,0,0
					l0.1-0.1l0.3-0.4c0.5-0.6,0.8-1,1.1-1.5c1.3-2.1,1.7-4.5,1.1-7c-0.6-2.5-2-4.9-3.4-7.4c-1.3-2.5-2.8-5.2-3.3-8.3
					c-0.2-1.6-0.2-3.2,0.2-4.8c0.4-1.5,1.1-3.1,1.9-4.3c0.2-0.3,0.4-0.6,0.6-1c0.2-0.3,0.4-0.7,0.7-1c0.5-0.6,1-1.2,1.6-1.7
					c1.1-1.1,2.5-2,3.9-2.6c1.4-0.6,2.9-1,4.3-1.4c1.4-0.3,2.7-0.6,3.6-1.1c1.7-0.8,1.9-3.6,1.7-6.2c-0.1-1.3-0.3-2.7-0.5-4.1
					l-0.1-0.5l-0.1-0.6c0-0.4-0.1-0.7-0.1-1.1c0-0.4,0-0.8,0-1.3l0.1-1.2c0.2-1.6,0.8-3.2,1.6-4.5c0.8-1.4,1.9-2.5,3-3.6
					c2.2-2.1,4.7-3.7,7.1-5.2c2.4-1.5,4.8-3,7-4.6c2.1-1.6,4.1-3.5,5-5.7l0,0l1.3,2.1c-0.6,0.1-1.3,0.1-1.9,0.1c-0.3,0-0.6,0-1,0
					l-1-0.1c-0.6-0.1-1.3-0.1-2-0.2l-1.9-0.4c-2.5-0.8-5.1-1.9-7.2-3.7c-2.1-1.7-4-3.8-5.4-6.2c-1.4-2.4-2.5-4.9-3.1-7.6
					c-0.6-2.7-0.9-5.4-0.7-8.1c0-1.4,0.2-2.7,0.4-4l0.2-1.5c0.1-0.6,0.2-1.2,0.2-1.7c0-0.4,0-0.8,0-1.2l0-0.6c0-0.2-0.1-0.4-0.1-0.7
					l-0.2-1.4c-0.1-0.5-0.2-0.9-0.3-1.4c-0.2-0.9-0.6-1.8-0.9-2.7c-0.2-0.5-0.4-0.9-0.6-1.4c-0.2-0.5-0.4-0.9-0.7-1.4
					c-0.9-1.9-2.1-3.8-3.3-5.9c-1.2-2.1-2.4-4.4-3.3-6.9c-0.2-0.6-0.4-1.3-0.6-2l-0.3-1c-0.1-0.3-0.1-0.7-0.2-1l-0.4-2.1l-0.2-2.1
					l-0.1-1.1l0.1-1.1l0.1-2.1c0.1-0.9,0.1-1.1,0.3-2c0.1-0.8,0.3-1.4,0.5-2.1c0.4-1.3,0.9-2.7,1.4-3.9c0.6-1.2,1.2-2.4,1.7-3.3
					c0.5-0.9,0.7-1.6,0.7-1.4c0,0.1,0.1,0.3,0.1,0.3c0,0-0.1-0.2-0.3-0.4c-0.4-0.5-1.1-1.1-1.9-1.7c-0.4-0.3-0.8-0.6-1.2-0.9
					l-0.6-0.4l-0.7-0.5c-1-0.7-1.8-1.2-2.8-1.8l-3-1.9c-1.1-0.7-2.2-1.4-3.4-2.5c-1.2-1.1-2.3-2.4-3-3.9c-0.3-0.7-0.7-1.5-0.9-2.3
					l-0.3-1.1l-0.2-1.1c-0.3-1.4-0.3-2.8-0.4-4.1l-0.1-1.7c0-0.6,0-1.2-0.1-1.6c-0.1-0.4-0.1-0.9-0.2-1.3c-0.1-0.4-0.2-0.9-0.3-1.3
					c-0.1-0.4-0.2-0.8-0.4-1.1c-0.2-0.3-0.3-0.7-0.5-0.8c-0.3-0.5-0.6-0.7-1.1-1c-0.4-0.2-1.1-0.3-1.8-0.4c-0.4,0-0.8,0-1.2,0.1
					l-0.7,0.1l-0.7,0.1c-1.9,0.4-3.9,1.1-5.9,2c-4.1,1.7-8.1,3.9-12.4,6c-1.1,0.5-2.3,1-3.5,1.5c-0.6,0.2-1.3,0.4-2.1,0.6
					c-0.3,0.1-0.8,0.1-1.2,0.2l-0.3,0c-0.1,0,0.2,0-0.3,0l-0.1,0l-0.1,0l-0.4,0c-2.1-0.1-3.7-1-4.9-1.9c-1.2-0.9-2.2-1.9-3-2.9
					c-1.6-1.9-3-3.8-4.4-5.2c-0.7-0.7-1.4-1.3-2.1-1.7c-0.7-0.4-1.3-0.6-2.1-0.6c-0.7,0-1.5,0.2-2.4,0.5c-0.8,0.4-1.7,0.9-2.6,1.5
					c-0.4,0.3-0.8,0.6-1.3,1l-0.2,0.1l-0.1,0.1l0,0c0,0-0.1,0.1,0,0l-0.3,0.3l-0.6,0.6c-0.2,0.2-0.4,0.4-0.6,0.6l-0.5,0.5
					c-0.3,0.4-0.7,0.8-1,1.2c-0.6,0.8-1.2,1.8-1.9,2.8c-0.2,0.3-0.3,0.5-0.6,0.8c-0.2,0.3-0.4,0.5-0.7,0.8c-0.2,0.3-0.5,0.5-0.8,0.8
					c-0.2,0.1-0.3,0.3-0.5,0.4l-0.5,0.3c-1.4,0.8-2.9,0.9-4.2,0.9c-0.6,0-1.3-0.1-1.9-0.1l-1.8-0.2l0,0l-1.3-1.6
					c0.3-3.8,0.3-7.7-0.5-11.3c-0.4-1.8-1-3.5-1.9-5.1c-0.4-0.8-0.9-1.5-1.5-2.2l-0.4-0.5l-0.4-0.4c-0.4-0.3-0.7-0.7-1.1-1
					c-1.2-1-2.8-1.9-4.5-2.4c-1.7-0.5-3.5-0.8-5.3-0.8c-1.8,0-3.6,0.2-5.4,0.7c-1.8,0.5-3.5,1.1-5.1,1.9c-1.6,0.8-3.2,1.8-4.6,2.9
					c-0.8,0.6-1.5,1.3-2.3,1.9c-0.8,0.6-1.6,1.2-2.4,1.8L88,22.2c-1.6,1.1-3.1,2.2-4.5,3.4c-1.4,1.2-2.5,2.5-3.3,3.9
					c-0.7,1.4-1,2.9-0.8,4.4c0.2,1.6,0.8,3.2,1.6,4.8c0.8,1.6,1.8,3.1,3,4.6l0,0l-1,3.5c-5.7,2.1-11.8,3.2-17.8,3.4l0,0l1.4-1.5
					c0,1.8-0.3,3.8-1,5.5c-0.7,1.8-1.9,3.3-3.3,4.6l0.1-0.2c-1,1.3-1.8,2.7-2.3,4.3c-0.5,1.5-0.7,3.2-0.9,5
					c-0.1,1.8-0.2,3.7-0.5,5.7c-0.3,2-1,4-2.2,5.8L56,80.1L56,80.2l-0.1,0.1l-0.1,0.1l-0.2,0.3c-0.2,0.3-0.7,0.8-1,1.2
					c-0.7,0.7-1.4,1.4-2.1,2c-1.4,1.2-2.7,2.4-3.8,3.7c-1.1,1.2-1.9,2.5-2.1,3.7c0,0.1-0.1,0.3-0.1,0.4c0,0.1,0,0.3,0,0.4
					c0,0.3,0.1,0.6,0.2,0.8c0.2,0.8,0.5,1.7,0.8,2.6c0.5,1.9,1,3.7,1.3,5.8c0.2,2,0.2,4.4-0.7,6.6c-0.8,2.2-2.4,4-3.9,5.4
					c-1.5,1.4-3.1,2.5-4.7,3.6c-0.8,0.5-1.6,1.1-2.4,1.5l-1.2,0.8l-1.1,0.7c-0.2,0.1-0.4,0.3-0.6,0.4l-0.4,0.4
					c-0.3,0.2-0.6,0.5-0.9,0.7c-0.6,0.5-1.1,1.1-1.7,1.6c-2,2.3-2.9,5-2.6,7.9c0.2,1.4,0.6,2.9,1.2,4.4l0.2,0.5l0.1,0.3l0,0
					c0,0.1-0.2-0.4-0.1-0.2l0,0.1l0.1,0.1l0.7,1.2l0.2,0.3l0.1,0.1c0.1,0.1,0.2,0.2,0.3,0.3s0.2,0.2,0.2,0.3
					c0.1,0.1,0.2,0.2,0.4,0.3c1.8,1.8,4.9,2.5,8.6,3.6c1.9,0.5,4,1.3,6,2.7c2,1.4,3.7,3.5,4.7,5.7l0.1,0.1l0,0.1
					c0,0.1-0.1-0.2,0.1,0.2l0.1,0.2l0.1,0.3l0.2,0.6l0.1,0.3c0,0.1,0.1,0.2,0.1,0.4l0.2,0.9c0.1,0.6,0.3,1.3,0.3,1.8
					c0,0.6,0.2,1.1,0.1,1.7c0.1,2.3-0.3,4.5-0.8,6.5c-1.1,4.1-2.9,7.6-4.4,10.8c-0.4,0.8-0.7,1.6-1.1,2.4l-0.5,1.2l-0.1,0.1l0,0
					c0.2-0.5,0-0.1,0.1-0.2l0,0.1l-0.1,0.3l-0.1,0.2c0,0,0,0,0,0c0,0,0,0,0-0.1c0,0.1,0,0.6,0.2,1.1c0.1,0.5,0.4,1.1,0.7,1.7
					c1.3,2.5,3.6,5,6,7c1.2,1,2.6,1.9,3.9,2.7c1.3,0.8,2.7,1.3,3.9,1.6L60.7,192.9z M58.6,201.6c-2.4-0.7-4.4-1.7-6.2-2.8
					c-1.8-1.1-3.5-2.4-5-3.7c-3.1-2.8-5.8-5.8-7.8-9.9c-0.5-1-0.9-2.2-1.2-3.4c-0.3-1.3-0.5-2.7-0.2-4.4c0-0.2,0.1-0.5,0.2-0.7
					l0.1-0.4l0.1-0.2l0.1-0.3l0-0.1l0.1-0.3l0,0l0.1-0.2l0.6-1.4c0.4-0.9,0.8-1.8,1.3-2.6c1.7-3.3,3.3-6.4,4.2-9.4
					c0.4-1.5,0.7-2.9,0.7-4.3c0-0.4,0-0.7-0.1-1c0-0.4-0.1-0.6-0.1-0.9l-0.1-0.4c0-0.1,0-0.2-0.1-0.3l-0.1-0.3l-0.2-0.7l-0.1-0.3
					l-0.1-0.2c0.1,0.4,0,0.1,0.1,0.2l0,0l0-0.1c-0.5-1.2-1.1-2-2.1-2.8c-1-0.7-2.3-1.3-4-1.8c-1.6-0.5-3.5-1-5.5-1.8
					c-0.5-0.2-1-0.4-1.5-0.7l-1.5-0.8l-1.4-1c-0.5-0.3-0.9-0.8-1.3-1.2c-0.2-0.2-0.4-0.4-0.6-0.6l-0.6-0.8l-0.6-0.8l-0.3-0.4
					l-0.2-0.3l-0.6-1.2l-0.1-0.2l0-0.1l-0.1-0.3l0,0l-0.1-0.4l-0.3-0.7c-0.7-1.9-1.3-4-1.5-6.2c-0.2-2.2,0.1-4.5,0.9-6.7
					c0.8-2.1,2-4.1,3.5-5.6c0.7-0.8,1.5-1.5,2.3-2.2c0.4-0.3,0.8-0.7,1.3-1l0.7-0.5c0.2-0.2,0.4-0.2,0.6-0.4l1.2-0.8l1.2-0.7
					c0.8-0.5,1.5-0.9,2.3-1.4c3-1.9,5.8-3.9,6.8-6.3c0.5-1.2,0.6-2.6,0.5-4.2c-0.1-1.6-0.5-3.3-0.9-5c-0.2-0.9-0.5-1.7-0.7-2.7
					c-0.1-0.6-0.3-1.2-0.3-1.9l0-1c0-0.3,0.1-0.6,0.2-0.9c0.2-1.3,0.8-2.3,1.3-3.3c0.6-0.9,1.3-1.8,2-2.5c1.4-1.5,2.9-2.7,4.2-3.9
					c0.7-0.6,1.4-1.2,2-1.7c0.3-0.3,0.5-0.5,0.8-0.9l0.2-0.3l0.1-0.1l0,0c0.1-0.1,0,0.1,0,0l0-0.1l0.3-0.5c0.9-1.3,1.4-2.7,1.8-4.3
					c0.3-1.6,0.5-3.4,0.7-5.3c0.2-1.9,0.5-3.9,1.2-5.8c0.7-1.9,1.8-3.7,3.1-5.3l0.1-0.2c1.1-1,2-2.1,2.6-3.4
					c0.6-1.3,0.9-2.8,0.9-4.3l1.4-1.5l0,0c5.7-0.7,11.2-2.2,16.3-4.6l-1,3.5l0,0c-1.2-1.7-2.3-3.4-3.3-5.4c-0.9-1.9-1.7-4-1.9-6.4
					c-0.3-2.3,0.3-4.9,1.4-6.9c1.1-2.1,2.7-3.7,4.3-5c1.6-1.4,3.3-2.5,4.9-3.6l4.9-3.3c0.8-0.5,1.6-1.1,2.3-1.7
					c0.7-0.5,1.5-1.2,2.3-1.8c1.6-1.4,3.5-2.4,5.4-3.3c1.9-0.9,3.9-1.6,5.9-2.1c2.1-0.5,4.2-0.7,6.3-0.7c2.1,0.1,4.3,0.4,6.3,1.1
					c2.1,0.8,3.9,1.8,5.7,3.3c0.4,0.4,0.7,0.7,1.1,1l0.3,0.3l0.1,0.1l0.1,0.1l0.1,0.1l0,0l0.5,0.6c0.7,0.8,1.3,1.8,1.8,2.7
					c1,1.9,1.7,3.9,2.1,6c0.8,4.1,0.7,8.2,0.4,12.2l-1.3-1.6l0,0l1.7,0.1c0.5,0,1.1,0,1.6-0.1c1-0.1,1.9-0.3,2.5-0.7
					c1.1-0.7,2-3,3.4-5.1c0.3-0.5,0.7-1,1.1-1.6l0.6-0.8c0.2-0.3,0.4-0.5,0.6-0.7l0.6-0.6l0.3-0.3l0.4-0.4c0.5-0.4,0.9-0.9,1.4-1.3
					c1-0.8,2.1-1.6,3.3-2.2c1.3-0.6,2.7-1.1,4.3-1.2c1.6-0.1,3.3,0.3,4.6,0.9c1.4,0.7,2.5,1.5,3.5,2.4c2,1.8,3.4,3.7,4.9,5.2
					c0.7,0.8,1.5,1.4,2.1,1.8c0.6,0.4,1.3,0.6,1.5,0.6c1,0.1,3.2-0.9,5.1-1.9c3.9-2.1,8-4.5,12.4-6.6c2.2-1.1,4.5-2,7.2-2.7l1-0.2
					c0.3-0.1,0.7-0.1,1.1-0.2c0.7-0.1,1.5-0.2,2.2-0.2c1.6,0,3.3,0.1,5,0.9c1.7,0.7,3.3,1.9,4.3,3.4c0.6,0.7,0.9,1.4,1.3,2.1
					c0.4,0.7,0.6,1.4,0.9,2.2c0.2,0.7,0.4,1.4,0.5,2.1c0.2,0.7,0.2,1.4,0.3,2.1c0.1,0.8,0.1,1.3,0.2,1.9l0.1,1.8
					c0.1,2,0.5,3.9,1.1,4.9c0.3,0.5,0.7,1,1.3,1.5c0.6,0.5,1.4,1,2.2,1.6l2.9,1.7c1,0.6,2.2,1.3,3.1,1.9l0.7,0.5l0.8,0.5
					c0.5,0.3,1.1,0.7,1.6,1.1c1.1,0.8,2.2,1.7,3.3,3c0.6,0.7,1.1,1.5,1.6,2.5c0.5,1,0.8,2.4,0.7,3.7c0,1.3-0.4,2.3-0.7,3.1
					c-0.3,0.8-0.6,1.5-0.9,2c-0.6,1.1-1,2-1.4,2.9c-0.4,0.9-0.7,1.8-0.9,2.7c-0.1,0.4-0.2,0.9-0.3,1.3c-0.1,0.2-0.2,1.2-0.2,1.4
					l-0.1,1.4l0,0.7l0.1,0.7l0.1,1.3l0.3,1.3c0,0.2,0.1,0.4,0.1,0.7l0.2,0.7c0.2,0.4,0.3,0.9,0.4,1.3c0.7,1.8,1.7,3.7,2.8,5.6
					c1.1,2,2.3,4,3.5,6.2c0.3,0.5,0.6,1.1,0.9,1.7c0.3,0.6,0.6,1.2,0.8,1.8c0.5,1.3,1,2.5,1.3,3.9c0.2,0.7,0.4,1.3,0.5,2l0.3,2.1
					c0,0.4,0.1,0.7,0.1,1.1l0,1.1c0,0.8,0,1.5,0,2.3c-0.1,0.6-0.1,1.2-0.2,1.8l-0.1,0.9l-0.1,1.1c-0.1,1-0.3,1.9-0.3,2.9
					c-0.1,1,0,1.9,0,2.9c0,0.5,0.1,1,0.1,1.4c0.1,0.5,0.1,1,0.2,1.4l0.2,1.4l0.4,1.4c0.1,0.5,0.3,0.9,0.4,1.4
					c0.2,0.4,0.3,0.9,0.5,1.3c0.7,1.8,1.8,3.4,2.9,4.9c1.2,1.5,2.7,2.7,4.4,3.9c1.7,1.1,3.7,1.9,5.8,2.6l1.3,2.1l0,0
					c-1.3,3-3.7,5.2-6,6.9c-2.4,1.8-4.8,3.2-7.2,4.7c-2.4,1.5-4.7,3-6.6,4.8c-1.9,1.8-3.4,3.9-3.7,6.3l-0.1,0.9l0,0.9
					c0,0.3,0.1,0.7,0.1,1l0.1,0.5l0.1,0.5c0.2,1.4,0.4,2.9,0.5,4.4c0.1,1.5,0.1,3-0.2,4.6c-0.1,0.8-0.5,1.7-0.9,2.5
					c-0.5,0.8-1.2,1.5-2,1.9c-1.6,0.9-3.1,1.1-4.5,1.4c-1.4,0.3-2.6,0.6-3.8,1.2c-2.3,1-4.1,2.9-5.5,5.1c-1.4,2.2-2,4.6-1.6,7.1
					c0.4,2.5,1.6,4.9,3,7.4c1.3,2.5,2.9,5,3.6,8.1c0.4,1.5,0.5,3.2,0.3,4.8c-0.3,1.6-0.9,3.2-1.7,4.5c-0.5,0.7-0.9,1.4-1.4,1.9
					l-0.3,0.4l-0.1,0.1c-0.1,0.1-0.1,0.1-0.1,0.2l-0.2,0.2c-0.3,0.3-0.6,0.6-0.9,0.8c-1.2,1-2.5,1.8-3.8,2.6c-2.6,1.4-5.4,2.5-8.4,3
					c-2.9,0.5-6.1,0.7-9.2-0.5c-1.5-0.6-3-1.6-4-3c-1.1-1.3-1.7-2.9-2-4.5l2.4-1.5l0,0c0.7,0.5,1.4,1.1,2.1,1.9
					c0.3,0.4,0.6,0.9,0.8,1.5c0.2,0.6,0.3,1.4,0.1,2.1c-0.4,1.4-1.3,2.2-2.1,2.8c-0.8,0.6-1.6,1-2.5,1.3c-1.6,0.7-3.3,1.1-4.9,1.4
					c-1.6,0.3-3.3,0.6-5,0.7c-0.9,0-1.7,0.1-2.7,0l-0.4-0.1c-0.2,0-0.3,0-0.4-0.1l-0.1,0l-0.1,0l-0.2,0l-0.3-0.1l-1.2-0.3
					c-1.6-0.5-3.1-1-4.6-1.5c-3-1-5.9-2-8.8-2.5c-0.4-0.1-0.7-0.1-1.1-0.2c-0.4-0.1-0.7-0.1-1-0.1c-0.3,0-0.6-0.1-1.1-0.1l-0.6,0
					l-0.1,0l-0.1,0c0.1,0,0,0,0,0l0,0l-0.3,0c-0.7,0.1-1.4,0.1-2,0.2l-1,0.2c-0.3,0.1-0.6,0.1-1,0.3c-2.5,0.8-4.7,2.5-7.1,4.6
					c-0.6,0.5-1.2,1-1.9,1.6c-0.3,0.3-0.7,0.5-1,0.8l-1.1,0.8c-0.7,0.5-1.6,1-2.4,1.4c-0.4,0.2-0.9,0.4-1.3,0.6
					c-0.4,0.2-0.9,0.4-1.4,0.5c-0.9,0.2-1.9,0.6-2.8,0.6c-1,0.1-1.9,0.2-2.9,0.2c-1,0-2.1-0.1-2.8-0.2l-1.2-0.2l-0.6-0.1l-0.1,0
					l-0.1,0l-0.2-0.1l0,0l-0.4-0.1c-0.5-0.2-1.1-0.3-1.6-0.5l-1.3-0.6c-0.9-0.4-1.6-0.9-2.4-1.4c-1.5-1-2.8-2-4.1-3.1
					c-2.6-2.2-5-4.5-7.2-6.9c-2.3-2.4-4.4-5-6.4-7.8l-0.7-1.1l-0.8-1.3l-0.4-0.6l-0.3-0.5l-0.3-0.5l-0.1-0.1L96,208l-0.1-0.2
					c-0.5-1.1-1.1-1.9-1.9-2.6c-1.5-1.4-3.8-2.3-6.4-2.7c-2.6-0.4-5.6-0.4-8.7-0.3c-3.1,0.1-6.2,0.4-9.6,0.4c-1.7,0-3.4,0-5.1-0.1
					c-0.9-0.1-1.8-0.2-2.7-0.3l-1.5-0.3l-1.2-0.3L58.6,201.6z"/>
			</g>
			<g>

			<animateTransform attributeName="transform"
				 attributeType="XML"
				 type="rotate"
				from="0 128 119"
				to="360 128 119"
				dur="10s"
				repeatCount="indefinite"  />
				<polygon fill="#3C6BB4" points="156.6,11.8 129.3,51.8 88.6,3.1 91.9,67.8 54.6,47.1 81.9,94.5 40.6,131.8 72.6,135.8 
					53.9,185.8 89.3,159.1 124.6,222.5 136.6,177.8 203.3,213.1 169.9,160.5 246.6,132.5 179.3,117.1 220.6,44.5 171.9,74.5 				"/>
				<path fill="#FFFFFF" d="M155.1,21.9L138.3,58l-7.6,16.4l-9.9-15.5L86.4,5l5.1-2l7.1,64.5l1.5,14l-11.5-7.8l-35.5-24l3.9-4
					l30.2,45.7l2.9,4.4l-4.2,3.3l-43.6,34.9l-1.6-5l32,4l3.6,0.5l-1.3,3.4l-18.7,50l-4.5-3.3l35.3-26.7l2.7-2l1.6,2.9l35.3,63.3
					l-5.3,0.7l8.5-45.6l1.6-8.7l7.8,4.6l65,38.6l-3.8,4.1L167.5,162l-1.9-3l3.4-1.2l76.7-28l0.4,5.6L178.6,120l-3.8-0.9l1.9-3.4
					L218.1,43l4.1,3.9l-45.2,35.6l-12,9.5l-2.1-15.3L155.1,21.9z M157.8,6.4l23.4,65.8l-14.2-5.8L219.1,42l8.6-4l-4.5,7.9
					l-41.3,72.7l-1.9-4.3l67.3,15.3l9.6,2.2l-9.3,3.4l-76.7,28l1.5-4.3l33.3,52.7l5.3,8.4l-9.1-4.3l-68.4-32.1l9.4-4.1l-15.5,43.7
					l-2.2,6.3l-3.1-5.6l-35.3-63.3l4.3,0.9l-35.3,26.7l-8,6l3.5-9.3l18.7-50l2.4,3.9l-32-4l-5.8-0.7l4.2-4.3l39.1-39.8l-1.2,7.8
					l-24.4-49l-3.7-7.4l7.6,3.4l39.2,17.3l-10,6.2l0.5-64.9l0-6.7l5.1,4.7l46.9,43.5l-17.5,0.8L157.8,6.4z"/>
			</g>
			<g>

			<animateTransform attributeName="transform"
				 attributeType="XML"
				 type="rotate"
				from="0 128 119"
				to="360 128 119"
				dur="10s"
				repeatCount="indefinite"  />
				<polygon fill="#3C6BB4" points="156.6,11.8 129.3,51.8 88.6,3.1 91.9,67.8 54.6,47.1 81.9,94.5 40.6,131.8 72.6,135.8 
					53.9,185.8 89.3,159.1 124.6,222.5 136.6,177.8 203.3,213.1 169.9,160.5 246.6,132.5 179.3,117.1 220.6,44.5 171.9,74.5 				"/>
				<path fill="#262262" d="M155.9,16.1L133.9,55l-4.1,7.2l-5-6.8L87.4,4.1l2.6-1l5.3,64.6l0.5,6.7l-5.7-3.5L53.9,48.4l2-2.1
					l28.8,46.5l1.4,2.3l-2,1.7l-42.5,36.1l-0.8-2.6l32,4l1.9,0.2l-0.7,1.8l-18.7,50l-2.3-1.7l35.3-26.7l1.4-1l0.8,1.5l35.3,63.3
					l-2.8,0.3l10.2-45.2l1-4.3l3.9,2.2l65.8,37l-2,2.1l-33.3-52.7l-1-1.6l1.7-0.6l76.7-28l0.2,2.9l-67.3-15.3l-2-0.4l1-1.8
					l41.3-72.7l2.1,2l-46.9,32.9l-6,4.2l-1.4-7.2L155.9,16.1z M157.2,8.7l19.5,64.6l-7.3-3l50.4-27.1l4.7-2.5l-2.6,4.5l-41.3,72.7
					l-1-2.2l67.3,15.3l5,1.1l-4.8,1.7l-76.7,28l0.8-2.2l33.3,52.7l2.9,4.5l-4.8-2.4L135,180.8l4.9-2.1L126,222.8l-1.1,3.4l-1.7-3
					l-35.3-63.3l2.2,0.5L54.8,187l-4.1,3.1l1.8-4.8l18.7-50l1.2,2l-32-4l-3.1-0.4l2.3-2.2l40.2-38.6l-0.6,4L53.3,47.9L51,43.7
					l4.3,2.1l38.3,18.9L88.5,68L87.1,3.2L87-0.7l2.7,2.9l43.9,46l-9,0.4L157.2,8.7z"/>
			</g>
			<g>

			<animateTransform attributeName="transform"
				 attributeType="XML"
				 type="rotate"
				from="0 128 119"
				to="360 128 119"
				dur="10s"
				repeatCount="indefinite"  />
				<polygon fill="#0097D6" points="113,180.4 129,157 152.8,185.5 150.8,147.6 172.7,159.7 156.7,132 180.8,110.2 162.1,107.8 
					173,78.6 152.4,94.2 131.7,57.1 124.7,83.3 85.7,62.6 105.2,93.4 60.3,109.8 99.7,118.8 75.5,161.3 104,143.7 				"/>
				<path fill="#FFFFFF" d="M113.9,174.4l9.7-21.1l4.5-9.7l5.9,9.2l20.1,31.5l-3,1.2l-4.2-37.7l-0.9-8.3l6.8,4.6l20.8,14.1l-2.3,2.4
					l-17.7-26.7l-1.7-2.6l2.5-2l25.5-20.4l0.9,3l-18.7-2.3l-2.2-0.3l0.8-2L171.4,78l2.6,2l-20.7,15.6l-1.6,1.2l-1-1.7L130.2,58
					l3.2-0.4l-4.9,26.7l-1,5.2l-4.6-2.7l-38-22.6l2.3-2.4l19.5,30.8l1.1,1.8l-2,0.7l-44.9,16.4l-0.2-3.3l39.4,9l2.3,0.5l-1.1,2
					L77,162.1l-2.4-2.3l26.4-20.9l7.1-5.6l1.3,9L113.9,174.4z M112.3,183.5l-13.7-38.5l8.4,3.4l-30.5,14.3l-5.1,2.4l2.7-4.7
					l24.2-42.5l1.1,2.5l-39.4-9l-5.7-1.3l5.5-2l44.9-16.4l-0.9,2.5L84.2,63.5l-3.1-5l5.4,2.5l40,18.8l-5.6,2.4l9.1-25.6l1.3-3.7
					l1.8,3.3l20.7,37.1l-2.5-0.5L172,77.2l4.7-3.6l-2.1,5.5l-10.9,29.3l-1.4-2.3l18.7,2.3l3.4,0.4l-2.5,2.5l-22.9,23.3l0.7-4.6
					l14.3,28.7l2.2,4.3l-4.5-2l-22.9-10.1l5.9-3.7l-0.3,38l0,4l-3-2.8L124,161.2l10.4-0.5L112.3,183.5z"/>
			</g>
			<g>

			<animateTransform attributeName="transform"
				 attributeType="XML"
				 type="rotate"
				from="0 128 119"
				to="360 128 119"
				dur="10s"
				repeatCount="indefinite"  />
				<polygon fill="#0097D6" points="113,180.4 129,157 152.8,185.5 150.8,147.6 172.7,159.7 156.7,132 180.8,110.2 162.1,107.8 
					173,78.6 152.4,94.2 131.7,57.1 124.7,83.3 85.7,62.6 105.2,93.4 60.3,109.8 99.7,118.8 75.5,161.3 104,143.7 				"/>
				<path fill="#364E74" d="M113.4,177.9l12.8-22.8l2.4-4.2l2.9,4l21.9,30l-1.5,0.6l-3.1-37.8l-0.3-3.9l3.3,2l21.3,13.1l-1.2,1.2
					L155,133l-0.8-1.3l1.2-1l24.9-21.1l0.5,1.5l-18.7-2.3l-1.1-0.1l0.4-1l10.9-29.3l1.4,1l-20.7,15.6l-0.8,0.6l-0.5-0.9l-20.7-37.1
					l1.6-0.2l-6,26.4l-0.6,2.5l-2.3-1.3L85.3,63.4l1.2-1.2l19.5,30.8l0.6,0.9l-1,0.4l-44.9,16.4l-0.1-1.7l39.4,9l1.2,0.3l-0.6,1
					l-24.2,42.5l-1.2-1.2l27.4-19.2l3.5-2.4l0.8,4.2L113.4,177.9z M112.6,182.2l-11.4-37.8l4.3,1.8L76,162l-2.7,1.5l1.5-2.6
					l24.2-42.5l0.6,1.3l-39.4-9l-2.9-0.7l2.8-1l44.9-16.4l-0.4,1.3L84.9,63.1l-1.7-2.7l2.8,1.4l39.5,19.7l-2.8,1.2l8.1-25.8l0.6-2
					l1,1.8l20.7,37.1l-1.3-0.3l20.7-15.6l2.4-1.8l-1.1,2.8l-10.9,29.3l-0.7-1.2l18.7,2.3l1.8,0.2l-1.3,1.3l-23.5,22.6l0.4-2.3
					l15.1,28.2l1.3,2.4l-2.5-1.2l-22.4-11.1l3-1.9l0.8,37.9l0,2.3l-1.6-1.7l-25.7-26.9l5.3-0.3L112.6,182.2z"/>
			</g>
			<path opacity="0.15" fill="none" stroke="#FFFFFF" stroke-width="7" stroke-linejoin="bevel" stroke-miterlimit="10" d="
				M117.8-10.9c68.9,0,124.7,55.8,124.7,124.7c0,55.1-44.7,99.7-99.7,99.7c-44.1,0-79.8-35.7-79.8-79.8c0-35.3,28.6-63.8,63.8-63.8
				c28.2,0,51.1,22.9,51.1,51.1c0,22.6-18.3,40.9-40.9,40.9c-18.1,0-32.7-14.6-32.7-32.7c0-14.4,11.7-26.1,26.1-26.1"/>
			<path opacity="0.16" fill="none" stroke="#FFFFFF" stroke-width="6" stroke-linejoin="bevel" stroke-miterlimit="10" d="
				M142.4,253.6c-68.9,0-124.7-55.8-124.7-124.7c0-55.1,44.7-99.7,99.7-99.7c44.1,0,79.8,35.7,79.8,79.8c0,35.3-28.6,63.8-63.8,63.8
				c-28.2,0-51.1-22.9-51.1-51.1c0-22.6,18.3-40.9,40.9-40.9c18.1,0,32.7,14.6,32.7,32.7c0,14.4-11.7,26.1-26.1,26.1
				c-11.6,0-20.9-9.4-20.9-20.9c0-9.2,7.5-16.7,16.7-16.7c7.4,0,13.4,6,13.4,13.4c0,5.9-4.8,10.7-10.7,10.7c-4.7,0-8.6-3.8-8.6-8.6
				c0-3.8,3.1-6.9,6.9-6.9c3,0,5.5,2.5,5.5,5.5"/>
			<g opacity="0.58">

			<animateTransform attributeName="transform"
				 attributeType="XML"
				 type="rotate"
				from="360 128 119"
				to="0 128 119"
				dur="10s"
				repeatCount="indefinite"  />
				<path fill="#F69789" d="M118.2-40.7c0,0,0.8,0,2.5,0.1c0.8,0,1.8,0.1,3,0.1c0.3,0,0.6,0,0.9,0c0.4,0,0.8,0.1,1.2,0.1
					c0.8,0.1,1.7,0.2,2.7,0.2c0.9,0.1,1.9,0.2,3,0.3c1.1,0.1,2,0.3,3.1,0.4c2.2,0.3,4.5,0.6,7.1,1.2c1.3,0.3,2.6,0.5,3.9,0.8
					c1.4,0.3,2.7,0.7,4.2,1.1c2.9,0.7,5.9,1.7,9,2.8c6.2,2.3,13,5.2,20,9c6.9,3.9,14.1,8.7,21.1,14.5c14,11.6,27.4,27.5,37.3,47.3
					c5,9.8,9.1,20.6,12.1,32c2.9,11.4,4.7,23.6,5.2,36c0,1.6,0,3.1,0.1,4.7l0,2.4l0,0.6l0,0.6l0,0.3l0,1.1c-0.1,1.5-0.1,3-0.2,4.4
					c-0.1,1.7-0.3,3.4-0.4,5.1c-0.6,6.6-1.7,13-3.3,19.5c-3.2,12.9-8.5,25.7-15.8,37.5c-7.4,11.8-16.9,22.5-28.4,31.2
					c-11.4,8.7-24.8,15.3-39.2,18.7c-7.2,1.7-14.6,2.6-22,2.7l-1.4,0l-0.7,0l-0.3,0c-0.1,0-0.8,0-0.6,0l-2.5-0.1l-1.3-0.1
					c-0.4,0-1-0.1-1.5-0.1l-3-0.3c-1-0.1-1.9-0.3-2.9-0.4c-0.9-0.2-1.9-0.3-2.8-0.5c-1.9-0.4-3.7-0.7-5.6-1.3l-2.7-0.8l-2.7-0.9
					c-1.8-0.6-3.6-1.3-5.3-2c-3.5-1.5-6.9-3.1-10.1-5.1c-3.3-1.9-6.4-4.1-9.4-6.3c-2.9-2.3-5.8-4.8-8.4-7.4
					c-2.7-2.6-5.1-5.4-7.4-8.3c-2.3-2.9-4.4-5.9-6.4-9.1c-3.9-6.3-7.1-12.9-9.5-19.8c-4.8-13.8-6.7-28.4-5.6-42.8
					c0.1-1.9,0.4-3.7,0.6-5.5c0.3-1.8,0.6-3.6,1-5.4c0.7-3.6,1.8-7,3-10.5c1.2-3.4,2.7-6.7,4.3-9.9c1.6-3.2,3.5-6.3,5.5-9.2
					c8.1-11.8,19.6-21.2,32.8-26.3c3.3-1.3,6.7-2.3,10.1-3c3.4-0.7,6.9-1.2,10.3-1.3c6.9-0.3,14,0.5,20.5,2.8
					c6.5,2.3,12.5,5.7,17.5,10c5,4.3,9.3,9.3,12.6,14.8c6.7,10.9,9.7,23.3,9.6,35l0,0.6c0,0,0,0.6,0,0.5l0,0.3l-0.1,1l-0.1,2l-0.1,1
					c0,0.3-0.1,0.8-0.1,1.1c-0.1,0.8-0.2,1.5-0.3,2.3c-0.1,0.8-0.2,1.5-0.4,2.3l-0.5,2.1L181,136c-0.2,0.7-0.5,1.4-0.7,2.1
					c-1.8,5.5-4.5,10.6-7.9,15.1c-3.4,4.4-7.5,8.2-12,11.2c-4.5,2.9-9.5,5-14.6,6c-1.3,0.2-2.5,0.4-3.8,0.6
					c-1.3,0.1-2.5,0.1-3.8,0.2l-0.9,0l-0.2,0c0.1,0-0.5,0-0.5,0l-0.4,0c-0.6,0-1.1-0.1-1.7-0.1c-1,0-2.4-0.3-3.7-0.5
					c-1.4-0.2-2.5-0.6-3.7-0.9c-1.2-0.3-2.3-0.8-3.4-1.3c-1.1-0.4-2.2-1-3.2-1.6c-0.5-0.3-1-0.6-1.5-0.9c-0.5-0.3-1-0.7-1.4-1
					c-7.6-5.4-12.4-12.9-14.7-20.3c-1.3-3.7-1.8-7.4-2.1-10.9c0-0.9-0.1-1.8-0.1-2.6l0-0.3l0-0.2c0,0,0-0.4,0-0.3l0-0.6
					c0-0.4,0-0.8,0.1-1.2c0-0.4,0-0.8,0.1-1.2c0.1-0.4,0.1-0.9,0.2-1.3c0.1-0.9,0.2-1.8,0.4-2.5c0.6-3.2,1.8-6.1,3.1-8.7
					c0.4-0.6,0.7-1.3,1.1-1.9c0.3-0.6,0.8-1.2,1.1-1.7c0.7-1.2,1.6-2.1,2.4-3.1c3.4-3.8,7.3-6.2,10.5-7.5c0.8-0.3,1.6-0.7,2.4-0.9
					c0.8-0.2,1.5-0.4,2.1-0.6c1.3-0.3,2.5-0.4,3.4-0.5c1.8-0.1,2.8-0.1,2.8-0.1v6c0,0-0.7,0.1-2.2,0.2c-0.7,0.1-1.6,0.3-2.6,0.5
					c-0.5,0.2-1,0.3-1.6,0.5c-0.6,0.1-1.2,0.5-1.8,0.7c-2.5,1.1-5.4,3-8.1,6.1c-0.6,0.8-1.3,1.6-1.9,2.5c-0.3,0.5-0.6,0.9-0.9,1.4
					c-0.3,0.5-0.5,1-0.8,1.5c-1,2.1-1.8,4.5-2.3,7c-0.2,0.6-0.2,1.2-0.3,1.9c0,0.3-0.1,0.6-0.1,0.9c0,0.4,0,0.8,0,1.2
					c0,0.4,0,0.8,0,1.2l0,0.6c0,0.2,0-0.1,0,0l0,0.1l0,0.3c0,0.7,0.1,1.5,0.1,2.2c0.3,2.9,0.8,6,2,9c2.1,6,6.2,12,12.2,16l1.1,0.7
					c0.4,0.2,0.8,0.4,1.2,0.6c0.8,0.4,1.6,0.9,2.5,1.2c0.9,0.3,1.7,0.7,2.6,0.9c0.9,0.2,1.8,0.5,2.6,0.6c0.9,0.1,1.6,0.3,2.8,0.3
					c0.6,0,1.1,0,1.7,0.1l0.4,0c0.1,0-0.3,0,0,0l0.2,0l0.7-0.1c1-0.1,2-0.1,3-0.2c1-0.2,2-0.4,3-0.6c7.9-1.9,15.4-6.9,20.7-14.3
					c2.6-3.7,4.7-7.9,6-12.4c0.2-0.6,0.4-1.1,0.5-1.7l0.4-1.7l0.4-1.7c0.1-0.6,0.1-1.1,0.2-1.7l0.2-1.7c0-0.3,0.1-0.5,0.1-0.9l0-1
					l0.1-2l0-1l0-0.3c0-0.3,0,0.1,0,0l0-0.5c-0.2-10-3.1-20.2-8.8-29c-2.8-4.4-6.4-8.3-10.5-11.6c-4.1-3.3-8.8-5.8-13.8-7.4
					c-5-1.6-10.3-2.1-15.8-1.7c-2.7,0.2-5.5,0.7-8.2,1.3c-2.7,0.7-5.3,1.5-7.9,2.6c-10.3,4.3-19.4,12.2-25.7,21.9
					c-1.6,2.5-3,5-4.3,7.7c-1.2,2.7-2.4,5.4-3.3,8.2c-0.9,2.8-1.7,5.7-2.2,8.6c-0.3,1.5-0.5,2.9-0.7,4.4c-0.1,1.5-0.3,3-0.4,4.4
					c0,0.7-0.1,1.4-0.1,2.2l0,2.5l0,0.6c0,0,0,0.4,0,0.1l0,0.3l0,1.1l0.1,2.3c0.1,1.5,0.2,3.1,0.4,4.6c0.2,1.5,0.4,3,0.6,4.6
					c1,6,2.5,12,4.7,17.7c2.2,5.7,5,11.2,8.3,16.2c1.6,2.6,3.5,5,5.4,7.3c2,2.3,4,4.5,6.2,6.6c2.2,2.1,4.5,3.9,6.9,5.8
					c2.4,1.7,4.9,3.4,7.5,4.8c2.6,1.5,5.3,2.6,8,3.7c1.4,0.5,2.7,1,4.2,1.4l2.1,0.6l2.1,0.5c1.4,0.4,2.9,0.6,4.3,0.9
					c0.7,0.1,1.4,0.2,2.2,0.3c0.7,0.1,1.5,0.2,2.1,0.2l2,0.1c0.3,0,0.6,0.1,1,0.1l1.3,0l2.5,0c0.4,0-0.1,0,0,0l0.3,0l0.6,0l1.1-0.1
					c5.9-0.2,11.8-1.1,17.5-2.7c11.4-3,22-8.6,31-15.9c9-7.3,16.6-16.3,22.4-26.1c5.8-9.8,9.8-20.4,12.1-31.1
					c1.1-5.3,1.9-10.8,2.3-16.1c0.1-1.3,0.1-2.5,0.2-3.8c0-1.5,0-2.9,0-4.4l0-1.1l0-0.3c0-0.2,0,0.3,0,0l0-0.5l-0.1-2
					c-0.1-1.3-0.1-2.7-0.2-4c-0.7-10.7-2.5-20.9-5.3-30.5c-2.7-9.6-6.5-18.5-10.9-26.6c-8.7-16.2-20.1-28.9-31.6-37.9
					c-5.7-4.5-11.5-8.2-17.1-11.1c-5.6-2.9-10.9-5-15.8-6.6c-2.5-0.7-4.8-1.5-7-2c-1.1-0.3-2.2-0.6-3.2-0.8c-1.1-0.2-2.1-0.4-3-0.6
					c-1.9-0.4-3.8-0.6-5.5-0.8c-0.8-0.1-1.7-0.2-2.4-0.3c-0.7,0-1.4-0.1-2-0.1c-0.6,0-1.2-0.1-1.8-0.1c-0.3,0-0.5,0-0.8-0.1
					c-0.3,0-0.6,0-0.9,0c-1.2,0-2.2,0-3,0c-1.6,0-2.5,0-2.5,0L118.2-40.7z"/>
			</g>
			<g opacity="0.58">
			<animateTransform attributeName="transform"
				 attributeType="XML"
				 type="rotate"
				from="360 128 119"
				to="0 128 119"
				dur="10s"
				repeatCount="indefinite"  />
				<path fill="#F69789" d="M141.9,284.2c0,0-1,0-2.9-0.1c-0.9,0-2.1-0.1-3.5-0.1c-1.7-0.2-3.6-0.3-5.8-0.5
					c-0.5-0.1-1.1-0.1-1.7-0.2c-0.6-0.1-1.1-0.2-1.7-0.2c-1.1-0.2-2.3-0.4-3.6-0.6c-0.6-0.1-1.3-0.2-1.9-0.3c-0.7-0.1-1.3-0.3-2-0.4
					c-1.4-0.3-2.8-0.6-4.2-0.9c-5.8-1.5-12.5-3.3-19.6-6.3c-7.1-2.9-14.7-6.8-22.4-11.9c-7.7-5-15.4-11.3-22.8-18.8
					c-7.4-7.5-14.4-16.2-20.6-26.2c-3.1-4.9-5.9-10.3-8.6-15.8c-0.6-1.4-1.2-2.8-1.9-4.2c-0.3-0.7-0.6-1.4-0.9-2.1
					c-0.3-0.7-0.6-1.4-0.9-2.2c-0.6-1.5-1.1-2.9-1.7-4.4c-0.5-1.5-1-3-1.5-4.5c-4.1-12.1-6.7-25.1-7.9-38.7
					c-0.1-1.7-0.2-3.4-0.3-5.1c0-0.9-0.1-1.7-0.1-2.6c0-0.9,0-1.7,0-2.6c0-1.7,0-3.5-0.1-5.2c0.1-1.7,0.1-3.4,0.2-5.2
					c0-0.4,0-0.8,0.1-1.3l0.1-1.4c0.1-0.9,0.1-1.9,0.2-2.8c0.1-1.9,0.4-3.7,0.6-5.5l0.3-2.7l0.5-2.7c0.3-1.8,0.6-3.6,1-5.4
					c3.1-14.4,8.6-28.8,16.9-41.9C33.5,48.3,44.5,36.4,58,27.2c6.7-4.6,14-8.6,21.7-11.5c7.7-3,15.9-5.1,24.3-6.1
					c4.2-0.5,8.4-0.7,12.6-0.8l0.8,0c0.7,0,0.4,0,0.7,0l0.4,0l1.4,0.1l1.4,0.1l0.7,0l0.9,0.1l3.4,0.3c1.1,0.1,2.2,0.3,3.3,0.5
					c2.2,0.3,4.3,0.8,6.4,1.3c2.1,0.6,4.2,1.1,6.3,1.8c2.1,0.6,4.1,1.5,6.1,2.3c1,0.4,2,0.9,3,1.3l1.5,0.7l1.4,0.7
					c15.5,7.9,28.3,20.5,37.1,35.2c8.8,14.7,13.7,31.6,14.4,48.6c0.1,1.1,0.1,2.1,0.1,3.2l0,3.4l-0.1,2.9l0,0.7l-0.1,0.8l-0.1,1.7
					l-0.1,1.7l-0.2,1.6c-0.1,1.1-0.2,2.1-0.4,3.2c-0.2,1.1-0.4,2.1-0.6,3.2l-0.7,3.2c-2,8.4-5.3,16.5-9.8,23.9
					c-4.5,7.4-10.2,14.1-16.9,19.6c-6.7,5.5-14.4,9.8-22.7,12.5c-4.1,1.3-8.4,2.3-12.7,2.7c-2.1,0.2-4.3,0.4-6.4,0.4l-1.6,0
					l-1.6-0.1c-0.5,0-0.9,0-1.5-0.1l-1.8-0.2c-1.2-0.1-2.3-0.3-3.3-0.4c-1.1-0.1-2.2-0.4-3.2-0.6c-1.1-0.2-2.1-0.6-3.2-0.8
					c-1-0.3-2.1-0.7-3.1-1c-4.1-1.5-8-3.5-11.5-5.8c-7.2-4.7-13.1-11-17.5-17.9c-4.5-7-7.5-14.7-9.1-22.6c-0.8-4-1.2-8-1.3-11.9
					l0-1.5l0-0.7c0-0.2,0,0,0-0.6l0-0.3l0.2-2.7l0.1-1.4c0-0.4,0.1-1,0.2-1.5l0.5-3.2c0.1-1.1,0.4-2,0.6-3c0.2-1,0.5-2,0.7-2.9
					l1-2.8c0.3-0.9,0.6-1.9,1.1-2.8l1.2-2.7c0.4-0.9,0.9-1.8,1.4-2.6c0.5-0.9,0.9-1.8,1.5-2.6l1.7-2.5c0.3-0.4,0.5-0.8,0.9-1.2
					l1-1.1l1.9-2.3l2.1-2.1l1.1-1c0.4-0.3,0.8-0.6,1.1-1l2.3-1.9c0.8-0.6,1.6-1.1,2.4-1.7c1.6-1.1,3.4-2,5.1-2.9
					c0.9-0.5,1.8-0.8,2.7-1.2c0.9-0.3,1.8-0.8,2.8-1l2.8-0.8c0.5-0.1,0.9-0.3,1.4-0.4l1.4-0.2l2.9-0.5c1-0.1,1.9-0.1,2.9-0.2
					l1.4-0.1l0.4,0c-0.1,0,0.6,0,0.6,0l0.6,0l2.5,0.2c4.3,0.5,8,1.7,11.5,3.3c3.5,1.7,6.6,4,9.3,6.5c2.7,2.6,5,5.5,6.9,8.6
					c0.4,0.8,0.9,1.6,1.3,2.4l0.6,1.2l0.5,1.2c0.3,0.8,0.7,1.6,1,2.5c0.3,0.8,0.5,1.7,0.8,2.5c0.3,0.8,0.5,1.7,0.7,2.6
					c0.2,0.9,0.4,1.7,0.5,2.6c0.1,0.9,0.2,1.7,0.3,2.6l0.2,1.3l0,1.3c0,0.9,0.1,1.7,0.1,2.6c0,0.2,0,0,0,0.5l0,0.3l0,0.6l-0.1,1.2
					c0,0.4,0,0.7-0.1,1.2l-0.2,1.4c-0.1,0.9-0.2,1.9-0.5,2.7c-0.7,3.4-2,6.7-3.7,9.6c-1.7,3-3.7,5.7-6.2,8c-2.5,2.3-5.3,4.2-8.4,5.6
					c-3.1,1.4-6.4,2.1-9.6,2.3l-1.2,0.1l-0.6,0c-0.1,0-0.6,0-0.5,0l-0.3,0l-1-0.1c-0.3,0-0.7,0-1.2-0.1c-0.9-0.2-1.8-0.3-2.6-0.5
					c-0.8-0.2-1.6-0.4-2.4-0.8c-3.1-1.2-5.8-3-8.1-5.1c-4.6-4.3-7.2-10.1-8.1-15.8c-0.1-0.7-0.2-1.4-0.3-2.1c0-0.7-0.1-1.4-0.1-2.1
					l0-0.5c0,0.1,0-0.4,0-0.4l0-0.2l0.1-0.9c0-0.6,0.1-1.4,0.2-2.1c0.5-3,1.4-5.6,2.8-8.1c2.8-4.9,7.5-8.6,12.8-9.8
					c1.3-0.3,2.7-0.5,4-0.5l0.2,0c-0.1,0,0.4,0,0.4,0l0.4,0l0.8,0.1c0.7,0.1,1.5,0.2,2.2,0.4c2.6,0.7,5,2,6.8,3.7
					c3.8,3.4,5.6,8.1,5.9,12.5l0,0.8l0,0.4c0,0.1,0,0,0,0.3l0,0.2l0,0.7l0,0.4l-0.1,0.5c-0.1,0.6-0.2,1.2-0.3,1.7
					c-0.1,0.5-0.3,1.1-0.5,1.6c-0.7,2.1-1.9,4-3.4,5.5c-1.5,1.5-3.3,2.7-5.3,3.4c-1,0.3-2,0.5-3,0.6l-0.8,0l-0.2,0
					c0.1,0-0.3,0-0.3,0l-0.3,0l-0.6,0l-0.9-0.1c-4.2-0.9-6.9-3.9-8.2-7c-0.6-1.5-0.9-3.1-1-4.7l0-0.3l0-0.1c0,0,0-0.3,0-0.2l0-0.5
					l0-0.2l0-0.3l0.1-0.6c0.1-0.8,0.3-1.5,0.6-2.2c1.1-2.7,3.3-4.8,5.7-5.6c1.2-0.4,2.5-0.5,3.5-0.4c1.4,0.1,2.3,0.5,3.2,1.1
					c1.7,1.1,2.7,2.5,3.2,3.7c0.5,1.2,0.7,2.2,0.7,2.8c0,0.6,0,1,0,1h-4.6c0,0,0.1-0.7-0.4-1.8c-0.3-0.5-0.7-1.1-1.4-1.5
					c-0.3-0.2-0.8-0.3-1-0.3c-0.6,0-1.1,0-1.6,0.2c-1,0.4-2.1,1.4-2.7,2.8c-0.1,0.2-0.1,0.4-0.2,0.6c0,0.2-0.1,0.4-0.1,0.6l0,0.2
					c0,0,0,0.1,0,0.1l0,0.2l0,0.5c0,0.1,0-0.1,0,0l0,0.1l0,0.2c0,0.9,0.3,1.9,0.7,2.8c0.4,0.9,1,1.7,1.7,2.4
					c0.7,0.6,1.7,1.1,2.6,1.3c0.1,0,0.2,0,0.3,0.1l0.6,0l0.3,0c0.1,0-0.2,0,0,0l0.1,0l0.4,0c0.6-0.1,1.1-0.2,1.7-0.4
					c1.1-0.4,2.1-1.1,3-2c0.9-0.9,1.6-2.1,2-3.4c0.1-0.3,0.2-0.7,0.3-1c0.1-0.4,0.1-0.7,0.2-1l0-0.2l0-0.3l0-0.7l0-0.2
					c0,0.2,0,0,0,0l0-0.3l0-0.6c-0.3-3.1-1.6-6.2-4.1-8.3c-1.2-1-2.6-1.8-4.2-2.1c-0.4-0.1-0.6-0.1-1-0.2l-0.8,0l-0.4,0
					c-0.1,0,0.2,0,0,0l-0.2,0c-0.9,0-1.7,0.2-2.6,0.4c-3.4,0.9-6.5,3.4-8.3,6.8c-0.9,1.7-1.6,3.7-1.8,5.6c-0.1,0.5-0.1,0.8-0.1,1.5
					l0,0.9l0,0.2c0,0.1,0-0.2,0,0l0,0.4c0,0.5,0.1,1.1,0.1,1.6c0.1,0.5,0.2,1.1,0.2,1.6c0.8,4.2,2.9,8.4,6.2,11.3
					c1.6,1.5,3.5,2.6,5.6,3.3c0.5,0.2,1,0.3,1.6,0.5c0.5,0.1,0.9,0.1,1.4,0.3c0.2,0.1,0.6,0.1,0.9,0.1l1,0l0.3,0c0.3,0-0.1,0,0,0
					l0.4,0l0.9-0.1c2.3-0.2,4.6-0.8,6.8-1.8c2.1-1,4.1-2.4,5.9-4.2c1.8-1.7,3.3-3.8,4.4-6c1.2-2.3,2.1-4.7,2.5-7.3
					c0.4-2.3,0.7-5.3,0.4-8l-0.1-1l-0.2-1l-0.3-2c-0.1-0.7-0.3-1.3-0.5-2c-0.2-0.7-0.3-1.3-0.6-2l-0.7-2c-0.3-0.6-0.6-1.3-0.8-1.9
					l-0.4-1l-0.5-0.9c-0.3-0.6-0.7-1.2-1-1.8c-1.5-2.3-3.3-4.5-5.4-6.4c-2.1-1.8-4.4-3.4-6.9-4.6c-2.5-1.1-5.3-1.8-7.7-2.1l-2.5-0.1
					l-0.6,0c-0.2,0,0.4,0,0,0l-0.3,0l-1.1,0.1c-0.7,0.1-1.4,0.1-2.2,0.2l-2.1,0.4l-1.1,0.2c-0.4,0.1-0.7,0.2-1,0.3l-2.1,0.6
					c-0.7,0.2-1.4,0.6-2,0.8c-0.7,0.3-1.4,0.5-2,0.9c-1.3,0.7-2.6,1.4-3.8,2.3c-0.6,0.4-1.2,0.8-1.8,1.3l-1.7,1.5
					c-0.3,0.3-0.6,0.5-0.8,0.7l-0.8,0.8l-1.6,1.6l-1.4,1.8l-0.7,0.9c-0.2,0.3-0.4,0.6-0.6,1l-1.3,1.9c-0.4,0.6-0.7,1.4-1.1,2
					c-0.3,0.7-0.8,1.3-1,2.1l-0.9,2.2c-0.3,0.7-0.6,1.5-0.8,2.2l-0.7,2.2c-0.2,0.8-0.3,1.5-0.5,2.3c-0.1,0.8-0.4,1.6-0.4,2.3
					l-0.3,2.2c0,0.4-0.1,0.7-0.1,1.1l0,1.4l-0.1,2.7l0,0.3c0-0.5,0,0.1,0,0l0,0.6l0,1.2c0.2,3.3,0.6,6.5,1.3,9.7
					c1.5,6.4,4.1,12.6,7.8,18c3.7,5.5,8.4,10.2,14,13.6c2.8,1.7,5.7,3.1,8.7,4.1l2.3,0.7c0.8,0.2,1.6,0.4,2.3,0.5
					c0.8,0.1,1.6,0.3,2.4,0.4c0.8,0.1,1.6,0.2,2.3,0.2l1.1,0.1c0.4,0,0.9,0,1.4,0l1.2,0l1.3-0.1c1.7,0,3.3-0.2,5-0.4
					c3.3-0.4,6.6-1.2,9.7-2.4c6.3-2.2,12.2-5.7,17.4-10.2c5.2-4.5,9.5-9.9,13-15.9c3.5-6,5.9-12.6,7.3-19.4l0.5-2.6l0.4-2.6
					c0.1-0.9,0.2-1.7,0.3-2.6l0.1-1.3l0.1-1.2l0.1-1.2l0-0.6l0-0.7l0-2.9c0,0.3,0-0.1,0-0.1l0-0.3l0-0.7l0-1.3
					c0-0.9-0.1-1.8-0.1-2.7c-1-14.2-5.5-28.1-12.9-39.9c-7.4-11.8-18-21.5-30-27.2l-1.1-0.6l-1.2-0.5c-0.8-0.3-1.5-0.7-2.3-1
					c-1.6-0.6-3.1-1.2-4.7-1.6c-1.6-0.5-3.2-0.8-4.8-1.2c-1.6-0.3-3.2-0.7-4.9-0.8c-0.8-0.1-1.7-0.2-2.4-0.3l-2.2-0.2l-0.6,0l-0.7,0
					l-1.4,0l-1.4,0l-0.4,0c0,0-0.5,0-0.1,0l-0.6,0c-3.4,0.1-6.7,0.3-10,0.9c-6.6,1-13,2.8-19.1,5.3c-6.1,2.5-11.8,5.8-17.1,9.6
					C60,52.8,51.4,62.6,44.9,73.5c-6.5,10.9-10.7,22.7-12.9,34.6c-0.3,1.5-0.5,3-0.7,4.5l-0.3,2.2l-0.2,2.2c-0.1,1.5-0.3,3-0.4,4.4
					l-0.1,2.1l-0.1,1c0,0.3,0,0.8,0,1.2c0,1.5,0,3.1,0,4.6c0.1,1.5,0.1,3,0.2,4.5l0.1,2.2l0.2,2.2c0.1,1.5,0.2,2.9,0.4,4.4
					c1.3,11.5,3.8,22.5,7.5,32.5c0.5,1.3,0.9,2.5,1.4,3.7c0.5,1.2,1,2.4,1.5,3.6l0.8,1.8l0.8,1.8c0.6,1.2,1.1,2.3,1.7,3.5
					c2.4,4.5,4.8,8.9,7.5,12.9c5.3,8.1,11.2,15.1,17.3,21c6.1,5.9,12.5,10.7,18.7,14.5c6.2,3.8,12.2,6.7,17.8,8.9
					c5.6,2.2,10.8,3.4,15.3,4.5c1.1,0.2,2.2,0.4,3.3,0.6c0.5,0.1,1,0.2,1.5,0.3c0.5,0.1,1,0.1,1.5,0.2c1,0.1,1.9,0.2,2.8,0.4
					c0.4,0.1,0.9,0.1,1.3,0.2c0.4,0,0.8,0,1.1,0.1c1.5,0.1,2.8,0.2,3.9,0.3c1.4,0,2.6,0,3.5,0.1c1.9,0,2.9,0,2.9,0L141.9,284.2z"/>
			</g>
			<g>
				<animateTransform attributeName="transform"
				 attributeType="XML"
				 type="rotate"
				from="360 128 119"
				to="0 128 119"
				dur="10s"
				repeatCount="indefinite"  />
				<path fill="#262262" d="M118-17.4c0,0,0.8,0,2.3,0.1c1.6,0.1,3.7,0,7,0.4c3.2,0.2,7.1,0.7,11.6,1.4c1.1,0.2,2.3,0.4,3.5,0.6
					c0.6,0.1,1.2,0.2,1.8,0.3c0.6,0.1,1.2,0.3,1.9,0.4c1.3,0.3,2.6,0.6,3.9,0.9c1.3,0.3,2.7,0.8,4.1,1.2c2.8,0.8,5.7,1.8,8.8,2.9
					c3,1.2,6.2,2.4,9.3,3.9c6.4,3,13.1,6.7,19.7,11.4c13.3,9.3,26.6,22.4,37,39.5c5.2,8.5,9.5,18.1,12.8,28.3
					c3.3,10.2,5.2,21.3,5.8,32.7c0.1,1.4,0.1,2.9,0.1,4.3l0,2.2l0,0.5c0,0,0,0.3,0,0.4l0,0.3l0,1c-0.1,1.4-0.1,2.7-0.2,4.2
					c-0.1,1.5-0.2,3-0.4,4.5c-0.6,5.9-1.7,11.8-3.4,17.6c-3.2,11.6-8.7,22.9-16,33c-7.4,10.1-16.7,19.1-27.4,26.1
					c-10.7,7.1-22.9,12.2-35.8,14.8c-6.4,1.3-13,2-19.5,2.1c-6.5,0.1-13.3-0.5-19.8-1.9c-6.5-1.4-12.9-3.7-18.9-6.6
					c-6-3-11.6-6.6-16.8-10.9c-5.1-4.3-9.7-9.2-13.7-14.5c-4-5.4-7.3-11.2-9.9-17.3c-2.6-6.1-4.4-12.5-5.4-19
					c-0.3-1.6-0.4-3.3-0.6-4.9c-0.2-1.6-0.3-3.3-0.4-4.9l0-2.5l0-1.2l0-0.3l0-0.4l0-0.6l0.1-2.4l0.2-2.5
					c1.2-13.2,6.4-25.8,14.5-35.8c8.1-10.1,19-17.6,30.8-21.5c5.9-2,12.1-3.1,18.2-3.4l2.3,0l1.1,0c0.4,0,0.3,0,0.4,0l0.3,0l0.5,0
					c1.5,0.1,2.9,0.1,4.4,0.3c1.6,0.2,3.1,0.5,4.6,0.7c0.8,0.1,1.5,0.3,2.2,0.5l2.2,0.6c5.8,1.7,11.3,4.3,16.1,7.7
					c4.9,3.4,9,7.6,12.4,12.2l1.3,1.7c0.4,0.6,0.7,1.2,1.1,1.8l1.1,1.8l0.5,0.9l0.5,1c0.6,1.3,1.2,2.5,1.8,3.8
					c0.5,1.3,0.9,2.6,1.4,3.9c1.6,5.3,2.6,10.8,2.6,16.1l0,0.5c0,0.1,0,0.4,0,0.4l0,0.2l-0.1,1l-0.1,1.9l-0.1,1l-0.2,1l-0.3,2
					c-0.2,1.4-0.6,2.6-0.9,3.9c-0.2,0.6-0.3,1.3-0.5,1.9l-0.7,1.8c-1.9,4.9-4.6,9.3-7.9,13.1c-3.3,3.8-7.2,6.9-11.4,9.2
					c-4.2,2.3-8.7,3.9-13.2,4.7c-1.1,0.2-2.2,0.3-3.4,0.5c-1.1,0.1-2.2,0.1-3.3,0.2l-0.8,0l-0.2,0c0,0-0.3,0-0.3,0l-0.4,0
					c-0.5,0-1-0.1-1.6-0.1c-0.5,0-1,0-1.6-0.1c-0.6-0.1-1.1-0.2-1.7-0.3c-4.4-0.7-8.3-2.2-11.9-4.3c-3.5-2.1-6.6-4.7-9-7.6
					c-2.4-2.9-4.3-6.2-5.6-9.4c-0.3-0.8-0.6-1.7-0.9-2.5c-0.2-0.8-0.4-1.7-0.6-2.5c-0.2-0.8-0.3-1.6-0.5-2.5
					c-0.1-0.8-0.3-1.6-0.3-2.4c-0.3-3.2,0-6.2,0.7-9.2c0.6-2.9,1.8-5.5,3.2-7.7c1.3-2.3,3-4.1,4.6-5.7c3.3-3.1,6.8-5,9.8-6
					c0.7-0.3,1.4-0.5,2.1-0.7c0.7-0.2,1.3-0.3,1.9-0.5c1.2-0.2,2.2-0.4,3-0.4c1.6-0.1,2.5-0.1,2.5-0.1v2.6c0,0-0.8,0-2.2,0.1
					c-0.7,0-1.6,0.2-2.7,0.4c-0.5,0.1-1.1,0.3-1.7,0.4c-0.6,0.1-1.2,0.4-1.9,0.6c-2.6,1-5.8,2.7-8.7,5.5c-1.4,1.5-2.9,3.1-4,5.2
					c-1.2,2-2.2,4.3-2.7,6.9c-0.6,2.5-0.8,5.4-0.5,8.3c0,0.7,0.2,1.5,0.3,2.2c0.1,0.7,0.2,1.5,0.4,2.2c0.2,0.7,0.4,1.5,0.6,2.2
					c0.3,0.7,0.6,1.5,0.8,2.2c1.2,2.9,2.9,5.8,5.1,8.5c2.2,2.6,5,4.9,8.2,6.8c3.2,1.8,6.8,3.1,10.6,3.7l1.4,0.2
					c0.5,0.1,1,0.1,1.5,0.1c0.5,0,1,0,1.6,0.1l0.4,0c0.1,0,0,0,0.1,0l0.2,0l0.8,0c1-0.1,2-0.1,3-0.2c1-0.2,2-0.3,3.1-0.5
					c4.1-0.8,8.1-2.3,11.9-4.4c3.8-2.1,7.3-5,10.2-8.4c2.9-3.4,5.3-7.5,7-11.9l0.6-1.7c0.2-0.5,0.3-1.1,0.5-1.7
					c0.3-1.1,0.6-2.3,0.7-3.5l0.3-1.7l0.1-0.9l0-1l0.1-1.9l0-1l0-0.2c0-0.2,0,0,0-0.1l0-0.5c-0.1-4.9-1-9.9-2.5-14.7
					c-0.4-1.2-0.9-2.4-1.3-3.6c-0.6-1.1-1.1-2.3-1.7-3.5l-0.4-0.9l-0.5-0.8l-1-1.6c-0.3-0.5-0.7-1.1-1-1.6l-1.2-1.6
					c-3.1-4.1-6.9-7.9-11.3-10.9c-4.4-3-9.3-5.3-14.6-6.8l-2-0.5c-0.7-0.1-1.3-0.4-2-0.4c-1.3-0.2-2.6-0.4-3.9-0.6
					c-1.4-0.1-2.9-0.1-4.3-0.2l-0.9,0l-1,0l-2.1,0.1c-5.6,0.4-11.2,1.4-16.6,3.3c-10.7,3.7-20.6,10.7-27.7,19.9
					c-7.2,9.2-11.8,20.6-12.7,32.4l-0.2,2.2l0,2.4l0,0.6c0,0.1,0,0.3,0,0.2l0,0.3l0,1.1l0.1,2.3c0.1,1.5,0.2,3,0.4,4.5
					c0.2,1.5,0.3,3,0.7,4.5c1.1,5.9,2.8,11.8,5.2,17.3c2.4,5.5,5.5,10.8,9.2,15.6c3.7,4.8,7.9,9.2,12.6,13c4.7,3.8,9.9,7,15.3,9.7
					c5.5,2.6,11.2,4.5,17.1,5.7c5.9,1.2,11.8,1.7,17.9,1.5c6-0.2,12-0.9,17.9-2.2c11.7-2.6,22.8-7.4,32.5-13.9
					c9.7-6.5,18.1-14.8,24.6-24.1c6.6-9.3,11.4-19.5,14.1-30.1c1.4-5.3,2.3-10.6,2.8-15.9c0.1-1.3,0.2-2.6,0.3-3.9
					c0.1-1.3,0.1-2.8,0.1-4.1l0-1l0-0.3c0-0.1,0,0.1,0-0.1l0-0.5l-0.1-2c-0.1-1.3-0.1-2.6-0.1-3.9c-0.7-10.5-2.6-20.5-5.7-29.9
					c-3.1-9.3-7.2-18-12-25.7c-9.7-15.5-22-27.3-34.2-35.6c-6.1-4.2-12.2-7.4-18-10.1c-2.9-1.4-5.8-2.4-8.5-3.5
					c-2.8-0.9-5.4-1.9-8-2.5c-1.3-0.3-2.5-0.7-3.7-1c-1.2-0.3-2.4-0.5-3.6-0.8c-0.6-0.1-1.1-0.3-1.7-0.4c-0.6-0.1-1.1-0.2-1.7-0.3
					c-1.1-0.2-2.1-0.4-3.1-0.5c-4.1-0.6-7.6-1-10.3-1.1c-2.7-0.2-5.1-0.2-6.6-0.3c-1.5,0-2.3,0-2.3,0L118-17.4z"/>
			</g>
			<g>
			<animateTransform attributeName="transform"
				 attributeType="XML"
				 type="rotate"
				from="360 128 119"
				to="0 128 119"
				dur="10s"
				repeatCount="indefinite"  />
				<path fill="#262262" d="M142.1,262.1c0,0-0.9,0-2.7-0.1c-0.9,0-2-0.1-3.3-0.1c-1.4-0.1-3.1-0.2-5-0.4c-0.9-0.1-2-0.1-3-0.3
					c-1-0.1-2.1-0.3-3.2-0.4c-1.1-0.2-2.3-0.3-3.5-0.5c-1.2-0.2-2.5-0.5-3.8-0.7c-0.7-0.1-1.3-0.2-2-0.4c-0.7-0.2-1.4-0.3-2.1-0.5
					c-1.4-0.3-2.8-0.7-4.3-1c-2.9-0.9-6.1-1.7-9.3-2.9c-6.5-2.2-13.6-5.2-20.8-9.2c-7.3-4-14.7-9-22-15.3
					c-7.3-6.2-14.3-13.6-20.7-22.2c-3.1-4.4-6.2-8.9-8.9-13.8c-1.4-2.4-2.6-5-3.9-7.5c-0.6-1.3-1.2-2.6-1.8-3.9
					c-0.6-1.3-1.2-2.7-1.7-4c-0.5-1.4-1.1-2.7-1.6-4.1c-0.5-1.4-0.9-2.8-1.4-4.2c-0.2-0.7-0.5-1.4-0.7-2.1c-0.2-0.7-0.4-1.4-0.6-2.2
					c-0.4-1.5-0.8-2.9-1.2-4.4c-1.4-5.9-2.5-12-3.2-18.3c-0.2-1.6-0.2-3.1-0.4-4.7c-0.1-1.6-0.2-3.2-0.2-4.8c0-1.6-0.1-3.2-0.1-4.8
					c0-1.6,0.1-3.2,0.1-4.8c0.4-6.8,1.3-13.4,2.9-19.9c3.2-13.2,9.1-26.1,17.5-37.5c8.4-11.4,19.2-21.5,31.9-28.9
					c12.7-7.4,27.1-12.3,42.1-13.9c3.7-0.4,7.5-0.6,11.3-0.6l0.7,0c0.1,0,0.5,0,0.5,0l0.3,0l1.3,0c0.9,0,1.7,0,2.7,0.1
					c2,0.2,4,0.3,5.9,0.6c7.7,1,15.2,3.1,22.4,6.1c14.3,6.1,26.9,16.3,36,29.1c4.6,6.4,8.2,13.4,10.8,20.8c1.3,3.7,2.3,7.5,3.1,11.3
					c0.7,3.9,1.3,7.7,1.5,11.6l0.1,1.5l0,1.5l0,3.1l-0.1,2.8c0,0.4-0.1,1-0.1,1.5l-0.1,1.5c-0.4,4-1.1,7.9-2.1,11.7
					c-2.1,7.7-5.5,14.9-10.1,21.3c-9.1,12.9-22.6,22.4-37.6,26.5c-7.4,2.1-15.3,2.9-22.8,2.2c-7.9-0.6-15.4-2.9-22.1-6.7
					c-6.7-3.7-12.5-8.9-17.1-14.9c-4.6-6-7.8-12.9-9.6-20.1c-0.2-0.9-0.5-1.8-0.6-2.7l-0.4-2.7c-0.1-0.9-0.3-1.8-0.3-2.7l-0.1-2.7
					l-0.1-1.4l0-0.7c0-0.2,0-0.1,0-0.5l0-0.3l0.1-2.6l0.1-1.3l0.2-1.4l0.5-2.8c1.5-7.2,4.8-13.9,9.4-19.5c4.7-5.5,10.6-9.8,17-12.5
					c3.3-1.2,6.6-2.3,10-2.7c0.9-0.1,1.7-0.3,2.6-0.4l2.6-0.1l1.3-0.1l0.3,0c0,0,0.4,0,0.5,0l0.6,0l2.4,0.1c0.8,0.1,1.8,0.2,2.6,0.4
					l1.3,0.2l1.2,0.3c0.8,0.2,1.7,0.4,2.5,0.7l2.4,0.9c0.8,0.3,1.5,0.7,2.3,1.1c0.8,0.4,1.5,0.7,2.2,1.2c0.7,0.4,1.4,0.9,2.1,1.3
					l2,1.5c5.2,4.2,9.2,9.8,11.3,15.9c0.6,1.5,0.9,3.1,1.3,4.6c0.2,0.8,0.2,1.6,0.4,2.4c0.1,0.8,0.2,1.6,0.2,2.4
					c0,0.8,0.1,1.6,0.1,2.4c0,0.2,0,0.1,0,0.4l0,0.3l0,0.5l-0.1,1.1c0,0.7-0.2,1.6-0.3,2.4l-0.2,1.2c-0.1,0.4-0.2,0.8-0.3,1.2
					c-1.5,6.2-5.2,11.5-9.9,15.3c-4.7,3.7-10.5,6-16.3,6.2l-1.1,0l-0.5,0c-0.1,0-0.4,0-0.4,0l-0.2,0c-0.7-0.1-1.3,0-2-0.1
					c-0.7-0.1-1.5-0.2-2.2-0.4c-0.7-0.2-1.4-0.4-2.1-0.6c-2.7-0.9-5.3-2.3-7.4-4c-8.8-7-11.4-19.8-5.5-28.4c2.8-4.2,7.2-7,11.8-7.9
					c0.6-0.1,1.2-0.2,1.7-0.3c0.6-0.1,1.2-0.1,1.7-0.1l0.2,0c0,0,0.3,0,0.3,0l0.4,0l0.8,0c0.5,0,1.2,0.2,1.8,0.3
					c2.3,0.5,4.3,1.5,6.1,2.8c1.7,1.3,3.2,3,4.1,4.9c1,1.9,1.6,3.9,1.7,5.9l0,0.7l0,0.4c0,0.1,0,0,0,0.3l0,0.2c0,0.5,0,0.8-0.1,1.4
					l-0.1,0.8l-0.2,0.7c-0.1,0.5-0.3,0.9-0.5,1.4c-0.7,1.8-1.9,3.4-3.3,4.6c-2.8,2.5-6.5,3.4-9.8,2.9c-3.4-0.6-6.1-2.8-7.4-5.5
					c-0.7-1.3-1-2.7-1-4.1l0-0.3l0-0.1c0,0,0-0.2,0-0.2l0-0.4c0-0.1,0-0.3,0.1-0.5l0.1-0.5c0.1-0.7,0.3-1.3,0.6-1.9
					c1.1-2.3,3.1-3.8,5.1-4.4c1-0.3,2-0.4,2.9-0.3c1,0.1,1.9,0.4,2.6,0.7c1.5,0.8,2.4,1.9,2.9,2.9c0.5,1,0.7,1.8,0.7,2.4
					c0.1,0.6,0.1,0.8,0.1,0.8h-2.6c0,0,0.1-0.8-0.5-2c-0.3-0.6-0.9-1.3-1.8-1.7c-0.4-0.2-1-0.4-1.5-0.4c-0.6,0-1.3,0-1.9,0.2
					c-1.3,0.4-2.7,1.4-3.3,3c-0.2,0.4-0.3,0.8-0.4,1.2l0,0.3c0,0.1,0,0.2,0,0.3l0,0.4l0,0.3c0,1,0.3,2,0.8,2.9
					c0.9,1.8,2.9,3.4,5.2,3.8c2.4,0.3,5.2-0.4,7.2-2.3c1-0.9,1.9-2.1,2.4-3.4c0.1-0.3,0.3-0.7,0.3-1l0.1-0.5l0.1-0.5
					c0.1-0.3,0.1-0.8,0.1-1.2l0-0.2c0,0.1,0-0.1,0-0.1l0-0.3l0-0.6c-0.3-3.1-1.9-6.2-4.6-8.2c-1.4-1-3-1.7-4.7-2.1
					c-0.4,0-0.8-0.1-1.2-0.2l-0.8,0l-0.4,0c-0.1,0,0.1,0-0.1,0l-0.2,0c-0.5,0-0.9,0-1.4,0.1c-0.5,0.1-0.9,0.2-1.4,0.2
					c-3.6,0.8-7.1,3.1-9.3,6.4c-1.1,1.7-1.8,3.6-2.2,5.6c-0.1,0.5-0.2,0.9-0.2,1.5l0,0.9l0,0.2c0,0.1,0-0.1,0,0.1l0,0.4
					c0,0.5,0,1.1,0.1,1.6c0.1,0.5,0.2,1.1,0.3,1.6c0.9,4.2,3.3,8.2,6.9,11c1.8,1.4,3.8,2.5,6,3.1c0.6,0.1,1.1,0.3,1.7,0.4l1.6,0.2
					c0.6,0.1,1.3,0.1,1.9,0.1l0.2,0c0.2,0,0,0,0.1,0l0.5,0l0.9-0.1c4.8-0.3,9.6-2.2,13.5-5.4c3.8-3.2,6.8-7.7,8-12.8
					c0.1-0.3,0.2-0.6,0.2-0.9l0.1-0.9c0.1-0.6,0.2-1.2,0.2-1.9l0-1.1l0-0.5l0-0.3c0,0.2,0-0.1,0-0.1l-0.1-2c0-0.7-0.1-1.3-0.2-2
					c-0.1-0.7-0.2-1.3-0.3-2c-0.4-1.3-0.6-2.7-1.2-3.9c-1.8-5.2-5.3-9.8-9.7-13.3l-1.7-1.3c-0.6-0.4-1.2-0.7-1.8-1.1
					c-0.6-0.4-1.2-0.7-1.9-1c-0.7-0.3-1.3-0.7-1.9-0.9l-2-0.7c-0.7-0.2-1.4-0.4-2.1-0.5l-1-0.3l-1-0.1c-0.7-0.1-1.3-0.2-2.1-0.3
					l-2.4-0.1l-0.6,0c-0.1,0,0.1,0-0.1,0l-0.3,0l-1.1,0.1l-2.2,0.1l-2.2,0.3c-2.9,0.4-5.8,1.4-8.6,2.5c-5.5,2.4-10.5,6.2-14.4,10.9
					c-3.8,4.8-6.6,10.5-7.7,16.6l-0.3,2.2l-0.2,1.1l-0.1,1.3l-0.1,2.6l0,0.3c0-0.2,0,0.1,0,0.1l0,0.6l0.1,1.2l0.1,2.4
					c0,0.8,0.2,1.6,0.3,2.4l0.4,2.4c0.1,0.8,0.4,1.6,0.6,2.3c1.6,6.2,4.5,12.1,8.5,17.3c4,5.1,9.1,9.5,14.9,12.6
					c5.8,3.1,12.3,4.9,18.8,5.4c6.8,0.5,13.6-0.3,20.1-2.3c13-3.7,24.7-12.3,32.4-23.6c3.8-5.6,6.7-11.9,8.4-18.6
					c0.8-3.3,1.4-6.7,1.7-10l0.1-1.2c0-0.4,0.1-0.8,0.1-1.3l0-2.8l-0.1-2.5l0-1.3l-0.1-1.3c-1-13.8-6-27.3-14.2-38.3
					c-8.1-11.1-19.3-19.8-31.8-24.9c-6.3-2.5-12.8-4.3-19.5-5c-1.7-0.2-3.3-0.3-4.9-0.4c-0.4,0-0.8,0-1.3,0l-1.3,0l-1.3,0l-0.3,0
					c-0.2,0,0,0-0.2,0l-0.6,0c-3.4,0.1-6.7,0.3-10.1,0.7c-13.3,1.6-26,6.1-37.1,12.9C58.4,55.3,49,64.3,41.8,74.5
					C34.6,84.6,29.6,96,27,107.5c-1.3,5.7-2.1,11.6-2.3,17.2c0,1.5,0,3-0.1,4.4c0,1.4,0.1,2.9,0.1,4.3c0,1.4,0.2,2.9,0.3,4.3
					c0.1,1.4,0.2,2.8,0.4,4.2c0.6,5.6,1.8,11,3.1,16.3c0.4,1.3,0.8,2.6,1.1,3.9l0.6,1.9l0.7,1.9c0.4,1.3,0.9,2.5,1.3,3.7
					c0.5,1.2,1,2.4,1.5,3.6c0.5,1.2,1,2.4,1.6,3.6c0.6,1.2,1.1,2.3,1.6,3.5c1.2,2.2,2.3,4.5,3.6,6.6c2.4,4.3,5.3,8.3,8.1,12.1
					c5.8,7.5,12.1,14,18.6,19.3c13,10.8,26.5,17.2,37.9,21c2.8,1,5.6,1.7,8.2,2.4c1.3,0.3,2.6,0.6,3.8,0.8c0.6,0.1,1.2,0.3,1.8,0.4
					c0.6,0.1,1.2,0.2,1.8,0.3c1.2,0.2,2.3,0.4,3.3,0.6c1.1,0.2,2.1,0.3,3.1,0.4c1,0.1,1.9,0.2,2.8,0.3c0.9,0.1,1.7,0.1,2.5,0.2
					c1.6,0.1,2.9,0.2,4.1,0.3c1.3,0,2.4,0,3.3,0.1c1.8,0,2.7,0,2.7,0L142.1,262.1z"/>
			</g>
		</g>
	</g>
</g>
</svg>
